/* XPM */
static char *ab42d2a1c15f4891fdd11adc3cd7ca43Y7J99vrwaBTuhAVy[] = {
/* columns rows colors chars-per-pixel */
"64 64 205 2 ",
"   c None",
".  c #3D3DD7",
"X  c #5C2CD7",
"o  c #5D2CD8",
"O  c #453CD9",
"+  c #5437DD",
"@  c #652DDA",
"#  c #7C28DC",
"$  c #563EE4",
"%  c #593DE4",
"&  c #6C34E3",
"*  c #653CE6",
"=  c #7434E4",
"-  c #7338E9",
";  c #7B3BEB",
":  c #7237E8",
">  c #7E2FE1",
",  c #3C45D9",
"<  c #2C5CD7",
"1  c #2C5DD8",
"2  c #3754DD",
"3  c #2D65DA",
"4  c #2A7CDC",
"5  c #3D59E4",
"6  c #3E55E3",
"7  c #346DE4",
"8  c #3B67E7",
"9  c #3473E5",
"0  c #3872E9",
"q  c #3877E8",
"w  c #4243DB",
"e  c #4149DE",
"r  c #454CE3",
"t  c #4C4EE8",
"y  c #5342E5",
"u  c #5944E9",
"i  c #5C49EB",
"p  c #4253E5",
"a  c #4A53EA",
"s  c #4459E9",
"d  c #4758E9",
"f  c #6C50EE",
"g  c #506CEE",
"h  c #7B7BFC",
"j  c #7070F7",
"k  c #8022D7",
"l  c #8123D8",
"z  c #812BDE",
"x  c #982DDB",
"c  c #A42CD7",
"v  c #A42DD8",
"b  c #AB37DD",
"n  c #BA3CD9",
"m  c #8B33E4",
"M  c #813DEC",
"N  c #8D38E9",
"B  c #8E38E7",
"V  c #9334E3",
"C  c #9A3CE6",
"Z  c #822FE1",
"A  c #A73DE4",
"S  c #AA3DE3",
"D  c #C13ED7",
"F  c #C23FD8",
"G  c #BC43DC",
"H  c #B641DE",
"J  c #8040ED",
"K  c #8A4AEE",
"L  c #9350EF",
"P  c #AC42E5",
"I  c #A744E9",
"U  c #AD4AEA",
"Y  c #A847E9",
"T  c #B345E3",
"R  c #B14CE8",
"E  c #BD53E5",
"W  c #BB59E9",
"Q  c #B65CEB",
"!  c #A057EC",
"~  c #857BFC",
"^  c #9070F7",
"/  c #BF66EA",
"(  c #AB6DEF",
")  c #C143D9",
"_  c #C344D7",
"`  c #C954DD",
"'  c #D65CD7",
"]  c #D75FD9",
"[  c #D365DB",
"{  c #D67CDC",
"}  c #C156E4",
"|  c #C259E4",
" . c #CC6CE3",
".. c #C566E5",
"X. c #CC74E4",
"o. c #C673E9",
"O. c #C37BEB",
"+. c #CB79E4",
"@. c #2280D7",
"#. c #2482D9",
"$. c #2B83DE",
"%. c #2E98DB",
"&. c #2CA4D7",
"*. c #2DA4D9",
"=. c #37ABDD",
"-. c #3CBAD9",
";. c #3483E5",
":. c #338CE4",
">. c #3B85EA",
",. c #398DE9",
"<. c #388CE7",
"1. c #3493E3",
"2. c #3C9AE6",
"3. c #2F82E1",
"4. c #3EA7E4",
"5. c #3DA9E3",
"6. c #43BDDC",
"7. c #49BEDE",
"8. c #4F91EF",
"9. c #7B85FC",
"0. c #7090F7",
"q. c #42ACE5",
"w. c #44A7E9",
"e. c #49A4EB",
"r. c #4CBAE3",
"t. c #4EB2E8",
"y. c #53BDE5",
"u. c #53B5EA",
"i. c #59BBE9",
"p. c #58B8E9",
"a. c #57A0EC",
"s. c #66BFEA",
"d. c #6DABEF",
"f. c #3FC1D7",
"g. c #42C2D9",
"h. c #44C3D7",
"j. c #54C9DD",
"k. c #5CD6D7",
"l. c #5FD7D9",
"z. c #65D3DB",
"x. c #7CD6DC",
"c. c #59C3E4",
"v. c #55C2E3",
"b. c #6DCBE4",
"n. c #68C5E6",
"m. c #73CBE5",
"M. c #72C6E9",
"N. c #7BC6E8",
"B. c #BDBCDC",
"V. c #BEB6DE",
"C. c #8080FF",
"Z. c #8787FB",
"A. c #9090F7",
"S. c #BF9AEA",
"D. c #AC8FF0",
"F. c #9ABFEA",
"G. c #8FACF0",
"H. c #A4A4EC",
"J. c #BDACE5",
"K. c #BBA7E9",
"L. c #B5ADEA",
"P. c #B8A8E9",
"I. c #ACBDE5",
"U. c #A7BBE9",
"Y. c #A4B6EB",
"T. c #BAB3E3",
"R. c #B2B1E8",
"E. c #DD80D7",
"W. c #D281DE",
"Q. c #DB81D9",
"!. c #D398DB",
"~. c #C9ABDD",
"^. c #D6A4D7",
"/. c #D7A5D9",
"(. c #C2BAD9",
"). c #CC8BE4",
"_. c #C181ED",
"`. c #C68DE9",
"'. c #CB88E4",
"]. c #CB93E3",
"[. c #C59AE5",
"{. c #C3A7E4",
"}. c #C2AAE3",
"|. c #80DDD7",
" X c #83D3DE",
".X c #82DCD9",
"XX c #98D3DB",
"oX c #ABC9DD",
"OX c #BAC2D9",
"+X c #A4D6D7",
"@X c #A5D7D9",
"#X c #83CCE4",
"$X c #8ACDE4",
"%X c #8CCBE5",
"&X c #86C4EB",
"*X c #85C5EA",
"=X c #83C5EA",
"-X c #8DC6E9",
";X c #8BC7E7",
":X c #93CBE3",
">X c #9AC5E5",
",X c #A7C2E4",
"<X c #A9C2E3",
"1X c #C2C2D8",
"2X c #C2C2D7",
/* pixels */
"                                                                                                                                ",
"                                                                                                                                ",
"                                                                                                                                ",
"                                                                                                                                ",
"                                                                                                                                ",
"                                                                                                                                ",
"                                                              |.|.                                                              ",
"                                                    z.x.|.|.|.|.|.|.|.|..X@X                                                    ",
"                                            l.k.k.z.z.b.b.b.b.m.%X:X:X:X%XXXXX+X+X@X                                            ",
"                                          k.k.z.z.m.m.m.b.b.b.N.&X:X:X:X%X$X$XXXXX+X+X                                          ",
"                                      k.k.j.v.m.m.m.m.m.b.b.b.=X&X;X:X:X%X$X$X$X%X<XoX+X+X                                      ",
"                                  g.j.j.y.y.y.n.m.m.m.m.b.b.m.&X&X&X;X:X$X$X$X%X>XI.I.I.oXoX                                    ",
"                                g.g.c.y.y.y.y.y.m.m.m.m.b.b.N.&X&X&X&X%X$X%X%X%XU.I.I.I.I.<XOX2X                                ",
"                              f.g.c.c.c.y.y.y.y.n.m.m.m.m.b.=X&X&X&X&X&X;X%X%X>XI.I.I.I.<X,X,XOX1X                              ",
"                            f.h.c.c.c.c.y.y.y.y.c.m.M.M.m.M.&X&X&X&X&X&X&X&X%X,XI.I.I.I.,X,X,X<XOX1X                            ",
"                          f.-.t.p.p.y.y.y.y.y.y.y.M.M.M.m.N.&X&X&X&X&X#X#X#X-XI.I.I.I.<X,X,X,XU.R.(.1X                          ",
"                        g.-.5.q.u.u.u.u.u.u.u.u.r.s.M.M.m.#X#X X Xx..X X%X-XF.U.I.U.U.I.U.I.R.L.P.}.(.2X                        ",
"                      g.-.5.5.4.t.u.u.u.u.u.u.r.y.i.M.M.M.M.m.x. X$X-X-X-X-XU.U.I.U.U.I.R.L.L.L.P.{.{.(.                        ",
"                      =.5.4.4.4.q.u.u.u.u.u.r.7.i.i.s.d.d.0.9.C.9.Z.A.G.G.F.U.U.U.I.L.L.L.L.L.L.K.{.{.}.~.                      ",
"                    *.=.q.5.4.4.q.t.u.u.u.u.6.y.i.d.9.C.C.C.C.C.9.C.C.C.C.Z.H.U.I.T.L.L.L.L.L.L.K.{.}.J.~.^.                    ",
"                    &.q.q.q.q.5.q.q.u.u.u.6.6.p.0.C.C.C.C.C.C.C.~ ~ C.C.9.C.C.A.Y.B.T.L.L.L.L.L.K.J.J.J.J.^.                    ",
"                  &.=.q.q.q.q.q.q.q.u.u.r.6.a.9.C.C.C.C.C.C.C.C.~ ~ C.C.9.C.C.C.Z.H.1XB.L.L.L.L.J.J.J.J.J.~.^.                  ",
"                &.&.5.q.q.q.q.q.q.q.q.r.6.a.C.C.C.C.C.C.C.C.C.C.C.C.C.C.9.9.C.C.C.C.H.V.B.T.L.L.J.J.J.J.J.}.^./.                ",
"                &.%.<.2.q.q.q.q.q.q.q.q.e.9.C.C.C.C.C.C.C.C.C.C.C.C.C.C.C.C.C.C.C.C.Z.P.K.V.T.L.J.J.J.K.[.).!.^.                ",
"                &.%.:.<.<.2.4.q.q.w.w.w.0.C.C.C.C.C.C.C.C.C.C.C.C.C.C.9.9.9.~ ~ ~ ~ C.A.K.K.K.J.J.{.[.).).).!.^.                ",
"                %.:.:.:.<.<.:.<.2.w.w.a.C.C.C.C.C.C.C.C.C.C.C.C.C.C.C.9.C.C.~ ~ ~ ~ ~ C.H.K.K.S.`.).).).).).).!.                ",
"              *.%.:.:.:.<.<.>.;.,.,.e.9.C.C.C.C.C.C.C.C.C.C.C.C.C.C.~ ~ C.C.C.C.C.C.C.C.Z.S.`.`.'._.).).).).).!./.              ",
"              #.:.:.:.:.:.<.>.;.:.,.8.C.C.C.C.C.C.C.C.C.C.C.C.C.C.C.~ ~ C.C.C.C.C.C.C.C.C.D.`.).W._._.).).).).).Q.              ",
"              @.1.1.1.1.<.>.>.;.$.,.8.C.C.C.C.C.C.C.C.C.C.C.C.C.C.C.C.C.C.C.~ ~ C.C.C.C.C.D.`.W.W._._.`.].].].].E.              ",
"              @.1.1.1.>.>.>.>.>.@.<.0.C.C.C.C.C.C.C.C.C.C.C.C.C.C.C.C.C.C.C.~ ~ C.C.9.9.C.A.`.Q.W._._._._.].].].E.              ",
"              @.1.1.>.>.>.>.>.>.#.:.9.C.C.C.C.C.C.C.C.C.C.C.C.C.C.C.9.C.C.C.C.C.C.C.9.9.C.Z.'.Q.W._._._._._.].].E.              ",
"              @.<.>.>.>.>.>.>.>.$.$.C.C.C.C.C.C.C.C.C.C.C.C.C.C.9.9.9.C.C.C.C.C.C.C.C.C.C.C.W.Q.W._._._._._._.).E.E.            ",
"              @.9 q >.>.>.>.>.>.$.4 9.C.C.C.C.C.C.C.C.C.C.C.C.C.C.C.C.C.C.C.C.C.C.C.C.C.C.C.{ Q.W._._._._._.O.X.E.E.            ",
"              @.7 7 7 9 q >.>.>.3.9 9.C.C.C.C.C.C.C.C.C.C.C.C.C.C.C.C.C.C.C.C.C.C.C.C.C.C.~ +.Q.W._._._._.O. . .E.              ",
"              @.7 7 7 7 7 7 9 q ;.0 j C.C.C.C.C.C.C.C.C.C.C.C.C.C.C.C.C.C.C.C.C.C.C.C.C.C.^ o.{ W._._._.O. . . .E.              ",
"              @.7 7 7 7 7 9 9 9 9 0 g C.C.C.C.C.C.C.C.C.C.C.C.C.C.C.C.C.C.C.C.C.C.C.C.C.C.( o.{ W._._.o. . . . .E.              ",
"              4 7 9 9 9 9 9 9 9 0 0 g C.C.C.9.C.C.C.C.C.C.C.C.C.C.C.C.C.C.C.C.C.C.C.C.C.C.( o.X.W._.O.X.X.X.X. .{               ",
"              3 3 9 9 9 9 9 9 9 0 0 s h C.C.9.C.C.C.C.C.C.C.C.C.C.C.C.C.C.C.C.C.C.C.C.C.~ / o.o.+.O.X.X.X.X.X.[ [               ",
"                3 9 9 9 9 9 9 0 8 s s g C.C.~ ~ C.C.C.C.C.C.C.C.C.C.C.C.C.C.C.C.C.C.C.C.( W W / o.X.X.X.X.X.+.]                 ",
"                < 3 9 9 9 8 5 p r p s s j C.~ C.C.C.C.C.C.C.C.C.C.C.C.C.C.C.C.C.C.C.C.^ W W W W W | ..X.X.X.[ '                 ",
"                < 3 9 8 p p p p a r e p d h C.C.C.C.C.C.C.C.C.C.9.C.~ ~ C.C.9.9.C.C.~ Q E W W W W W E W .. .[ '                 ",
"                < < 6 p p p p p a a r w e g C.C.C.C.C.C.C.C.C.C.9.C.C.~ C.9.9.C.C.C.! G T E W W W W E E E } ' ]                 ",
"                  1 2 p p p p p a a a a e w f h C.C.C.C.C.C.C.C.9.9.~ ~ C.C.C.C.~ ! ) T U U W W E E E E E ` '                   ",
"                    < p p p p p a a a a a r w i j C.C.C.C.C.C.C.9.9.C.~ ~ C.C.^ Y H G U U U E } } E E E E '                     ",
"                    < 2 p 5 5 p a a a a a a t y u f h C.C.C.C.C.9.9.C.C.C.~ ! I P G U U U U R W | | } E ` '                     ",
"                      2 5 5 5 p a a a a a a y y u u i f f j h C.9.~ ^ L K I I I H T U U U U U E | | | } `                       ",
"                        , 5 5 d a a a t y y y y u u - - - : = # z m B B N N I P T U U U U U U R } | | ) )                       ",
"                        . , 5 d a t y y y y y y y * - = # # l l l l l z m N C T U U U U U U U U W | ) F                         ",
"                          . , t y $ % % $ y y y y = > z z z z z z z z z z Z B P P P P P P P Y Y R _ D                           ",
"                            . O % % % % y y y y % = ; J J J J J J M J M J M m A P P P P A A A S n D                             ",
"                              . O % % $ y y y y * = = ; J J J J f M J M M B B C P P P P S A A n D                               ",
"                                . O $ y y y y y = = = = - M M M ; ; M N m B B B P P P P P S n F                                 ",
"                                    + + y y y * = = = = & ; M M M M M V m m m B C P P P b b )                                   ",
"                                      X X + $ = = = = = & & ; M M M V V m m m m B S b c v                                       ",
"                                          X X @ @ = = = & & & ; M V V V m m m x x c c                                           ",
"                                            X X X @ @ & & & & = m V V V m x x c c c                                             ",
"                                                    @ # l k k k k k k l l v                                                     ",
"                                                                                                                                ",
"                                                                                                                                ",
"                                                                                                                                ",
"                                                                                                                                ",
"                                                                                                                                ",
"                                                                                                                                ",
"                                                                                                                                "
};
