/* XPM */
static char *_724bd9d58ad42d4c408df36df1572c0cDCrYYgv2zf8VVnf[] = {
/* columns rows colors chars-per-pixel */
"64 64 218 2 ",
"   c #62370B",
".  c #643D0D",
"X  c #6A3E0C",
"o  c #733D09",
"O  c #783F09",
"+  c #633F10",
"@  c #67400F",
"#  c #6C420E",
"$  c #74440E",
"%  c #7B450C",
"&  c #76480F",
"*  c #7C490E",
"=  c #654110",
"-  c #6D4411",
";  c #6D471B",
":  c #724611",
">  c #744912",
",  c #774B17",
"<  c #7B4C12",
"1  c #7E5114",
"2  c #7B5219",
"3  c #614425",
"4  c #516A39",
"5  c #7F3D63",
"6  c #4F4749",
"7  c #4D4D59",
"8  c #5B7B47",
"9  c #82460B",
"0  c #844B0E",
"q  c #8A4E0E",
"w  c #934F0D",
"e  c #87500F",
"r  c #8C510F",
"t  c #93530F",
"y  c #9A550E",
"u  c #9D5A0F",
"i  c #824E11",
"p  c #8A4F14",
"a  c #855213",
"s  c #8B5412",
"d  c #885817",
"f  c #8D5915",
"g  c #8C5B19",
"h  c #925611",
"j  c #9A5710",
"k  c #935B15",
"l  c #9B5C13",
"z  c #935E19",
"x  c #9C5F1D",
"c  c #A0590F",
"v  c #A25D11",
"b  c #956117",
"n  c #9C6116",
"m  c #966219",
"M  c #9A6419",
"N  c #9C6B1D",
"B  c #A36315",
"V  c #A96515",
"C  c #AB6917",
"Z  c #A26618",
"A  c #A36C1C",
"S  c #AA6C1A",
"D  c #B06D19",
"F  c #A5711F",
"G  c #AB711E",
"H  c #8B522A",
"J  c #98592B",
"K  c #A15936",
"L  c #9D6E20",
"P  c #836630",
"I  c #A47221",
"U  c #A76539",
"Y  c #99355E",
"T  c #813E6A",
"R  c #A13D6B",
"E  c #8A5446",
"W  c #9A635C",
"Q  c #AB6E51",
"!  c #BA4D66",
"~  c #AD7A66",
"^  c #C74E77",
"/  c #36996A",
"(  c #578850",
")  c #418D78",
"_  c #679170",
"`  c #8F8175",
"'  c #B78571",
"]  c #6D2AA6",
"[  c #1C478D",
"{  c #27448E",
"}  c #1D4FA1",
"|  c #2A4BB1",
" . c #445D8C",
".. c #5F1CC9",
"X. c #5C25CE",
"o. c #6621CF",
"O. c #6726D3",
"+. c #792FE0",
"@. c #7D32E3",
"#. c #7C3AE8",
"$. c #316CD0",
"%. c #3A79E6",
"&. c #3D7DEC",
"*. c #5440E4",
"=. c #5A4BEB",
"-. c #585AEA",
";. c #7F41EE",
":. c #7E4BF4",
">. c #685EF7",
",. c #7458F7",
"<. c #427DEF",
"1. c #457DF1",
"2. c #487EF3",
"3. c #5671F5",
"4. c #6762F9",
"5. c #6C63FA",
"6. c #6F68FB",
"7. c #726DFD",
"8. c #6A72FB",
"9. c #7974FD",
"0. c #A2229A",
"q. c #A315B5",
"w. c #B17E9D",
"e. c #A871A3",
"r. c #D5558C",
"t. c #DC48A1",
"y. c #E649AC",
"u. c #E249B5",
"i. c #E053BB",
"p. c #991CC2",
"a. c #9222CA",
"s. c #A929C6",
"d. c #AB35D5",
"f. c #802FE0",
"g. c #BB43DA",
"h. c #804AF4",
"j. c #884DF4",
"k. c #9250F4",
"l. c #9E55F4",
"z. c #9E58F4",
"x. c #A94AEA",
"c. c #B042E4",
"v. c #A253F1",
"b. c #867AFE",
"n. c #8B7EFE",
"m. c #9876FB",
"M. c #B87AEF",
"N. c #AB76F5",
"B. c #A072FA",
"V. c #CE45C8",
"C. c #CF69D4",
"Z. c #C27BE8",
"A. c #0AAC88",
"S. c #0FA895",
"D. c #06B298",
"F. c #259DA4",
"G. c #19AFAF",
"H. c #19B2B2",
"J. c #20AABF",
"K. c #419DA5",
"L. c #64B2B1",
"P. c #55C0B2",
"I. c #2D90D1",
"U. c #28A7CB",
"Y. c #32A5D8",
"T. c #3782E2",
"R. c #3B9DE5",
"E. c #3D9CE8",
"W. c #39A1E2",
"Q. c #4ABDDA",
"!. c #4497EB",
"~. c #4D85F5",
"^. c #4C8CF3",
"/. c #5387F7",
"(. c #5088F6",
"). c #5687F8",
"_. c #5987F9",
"`. c #4890F0",
"'. c #5F91F4",
"]. c #6D87FC",
"[. c #6D88FB",
"{. c #7D86FF",
"}. c #7588FD",
"|. c #7AA1ED",
" X c #50D4D0",
".X c #9F9EBA",
"XX c #B0A3B6",
"oX c #C79497",
"OX c #D3A4BC",
"+X c #B980DB",
"@X c #8286FF",
"#X c #8B84FE",
"$X c #8188FF",
"%X c #958AFB",
"&X c #988BFB",
"*X c #8B9AFA",
"=X c #9396FA",
"-X c #BD82EC",
";X c #BA95ED",
":X c #B283F0",
">X c #BC83F0",
",X c #A793F7",
"<X c #A894F6",
"1X c #B394F1",
"2X c #A8ADEC",
"3X c #B7A5E9",
"4X c #B0B2E9",
"5X c #C899D9",
"6X c #D7A8C2",
"7X c #DAACCD",
"8X c #CEA5D9",
"9X c #D4A6D4",
"0X c #C581EA",
"qX c #C880E8",
"wX c #C38FE9",
"eX c #C59AE4",
"rX c #C196EA",
"tX c #B1C0E1",
/* pixels */
"l l j l l l l l l j h s s a q i 1 1 1 1 < < < < < < a 1 a a a > < a a a a a i a a d f s f f g k f k k z z z z m m m b M n n n l ",
"l l l l l l l l y t t h s q 9 * < < < a a a a a a a a a a s s < < s d f f d d s s a a a f z m m z z b b n b b n n n n n l B B l ",
"h h h h t t h h r r q q 0 * % % < < < < a a a a a a a a a a a < < a s a a a a a a a < < < d k k z m m M M m M m b b l l l l l h ",
"n l j j t t t q 0 0 $     . X X # $ & & & i a < a i a i i a a > < < < < < a a a < : < a a s f s k b k k k z z z m m b n n n Z l ",
"h h s q q r q 9 % o o $ % % & $ $ $ $ % i i 0 * a a < < < < < X # $ : : : : # $ $ < a a a a a i a i i i a a s s s s a s a q s s ",
"q q q 0 0 q 0 0 0 % % % % % % & & $ $ % i s f s f g a i i < < $ $ & & < < < < < i a a a a s a a a s s k k k k k h h h j h s s r ",
"# #       . # # : > : : : > : # # # # # # - # # # # # X X X X . X X # : : : : : : : > , , > : : : : : : : : : > : : : : : : : - ",
"f f a s f k k z m m m m m m z k k f f s s s a a i i 0 * * * % 0 a a a s f k k k b m m m m b b b z g g g d d g g d g a a s g d d ",
"f f f k k f z m m M m b z k h e r h l z z h h s e e r q q 0 & 9 a a a < < a a a a a a d d s s d g g a a < a a a a a a < a a a s ",
"f k k k k f k m M M m z h 9 q % % % q a a a 0 0 9 9 % * e a q * i i i < < < < < < < < < a < > : a a 1 < > < < a a < < < < a < a ",
"k z k z k z z M m M M m l j h q q 0 q s s s s h h s s r s a i < < & & > < : > < < < < < < < < < , < < < > < > < < < < < < < < s ",
"k z z z b m m m M m N z l b M b l h h j z k j k h h z k h P _ L..X` P < < < < < < < < < < < i i < < < < : > < < > < < < < < < f ",
"> > > > < < : > < < < < & < & & & & & & & > & & & & , _ P. X X|.=X4XtX.X` ; # - - - # # - # # . . . . X . . # # # . . # . # X : ",
"0 q i s s 0 o % h z j h j k h e a a s h k z l q 0 m K.Q.Q.Q.*X=X=X=X2X4X4XXXx n B Z B n B t 9 9 9 % % % % % 9 9 0 9 9 q 9 0 0 0 ",
"q e a s s a o o h s r h s s s e a a a a a q q % q ) U.E.E.'.$X*X*X*X,X<X3X8XoXy y y j q t q 9 9 9 % o o o o o o O % 9 0 O % % 9 ",
"% % % % % r % 9 q q a s a s s q 0 0 0 9 q h j j 8 H.R.E.E.}.{.{.*X=X,X,X<X3X7XQ q q w q q q 0 9 9 9 o o o o o 9 O o o % % % % % ",
"% $ % 9 * s f h h h s b b l j h t r q q q t r P G.U.E.E.!.{.{.{.{.%X,X,X,X<X7X6XJ t q t q 0 9 9 % % o o % % % % % % % % % % % % ",
"q q a a a a s s s s s s s q 9 0 q q q 0 0 0 i F.H.W.E.E.'.{.{.{.{.#X,X,X,X,XeX7XoXh t t r q q 0 q q q q q a q q q a s e 0 9 9 0 ",
"s s a a i a a a a a a a i q 9 0 q 9 q 0 q q 8 G.U.E.E.!.[.{.{.{.{.#X%X,X,X,X;X8X7X~ a i i i i i < i a a s d f f d f k b k f f s ",
"s s s s f f k b m z h s s s s f k k f s s d A.H.E.E.!.^.}.{.{.{.{.#X#X,X,X,X1XeX7XOX2 < < 1 < < < 1 < < < a a i i < i a a a a a ",
"l l n l B Z S S B B B v v B B B V C S S C ( D.Y.E.E.^./.}.{.{.{.{.#X#X%X,X,X1XrX8X7X~ a a s s s a s s s s e q r h h h t h j l l ",
"j h l h l l B n l j l j l y y c y l l l k A.H.E.E.^.(./.].$X{.{.$X#X#X#X,X,X,XrXrX9XOXd s s a e q q q q q 0 0 0 q t h t t r r h ",
"h j l n B S S G S S B l l y y y B B V V ( D.Y.E.^.(.(./.].$X{.{.$X#X#X#X%X,X,XrXrXeX7X~ s s s s s a q q e e e q q q r r r t h h ",
"h l l l l B S S S S B v l l c v B B B N A.J.E.^.(.(.(.).].$X{.{.@X#X#X#X#X,X,X;XrXrX8XOXg s s a s s a s s s s a a s r r r t t t ",
"t h h j l l l l l B v v v l v l l l v ( D.W.`.(.(.(.(._.].$X$X{.@X#X#X#X#X%X,X1XrXrXrX9X' s s s s s s s s a a a a a a r r r t t ",
"< < < < < < < < < < < < < < < < a i 2 A.J.`.(.(.(.(.(._.].$X$X{.#X#X#X#X#X#X&X1XrXrXrXeXOX2 : > > > : : > > > > > > : > > > < < ",
"b z b z l j l j j l l l j l B n B B ( D.!.(.(.(.(.(./._.].$X$X{.#X#X#X#X#X#X#X<XrXrXrXrX8X' m m m M m m m m m m m m m z m m b b ",
"k s s s s s s h h z l l l y y y y b A.U.(.(.(.(.(.(./._.].$X$X$X#X#X#X#X#X#X#X&XrXrXrXrXrX5Xz k k k k k k k k z m m z z m z k h ",
"a s s s a a a k k k z j h 0 * e h 8 D.~.(.(.(.(.(.(.)._.].$X$X#Xn.n.n.#X#X#X#X#X;XrXwX0XqX>XW a a s s s s a a s s s a s s a a a ",
"a a a a s f f f f k h h h q q r t / J.1.~.(.(.(.(.(.)._.].$X#Xn.n.n.n.n.n.n.n.#X:XqXqXqXqX>Xe.a i a i < < < a s s d f f a i i a ",
"a a a a a s a s s s h h h r t t f A.T.1.2.~.(.(.(.(._._.].#Xn.n.n.n.n.n.n.n.n.n.N.qXqXqXqX>X-Xs s s a a i i a a a a a a a a a i ",
"# # # # # # - # $ $ & & & & & & 4 S.&.1.2.2.~.(.(./._._.8.n.n.n.n.n.n.n.n.n.n.m.B.qXqXqX0X>X>XE # # . X X X .     . . . . @ # # ",
"N N N N N N L N A N M N A A A A / I.&.<.2.2.2.~.(./._.8.7.9.n.n.n.n.n.n.n.n.m.B.B.Z.qXqX0X>X>Xw.I I I L N N N L L L L L L L N L ",
"b N M N A A A A A A M b l j y B S.T.&.<.2.2.2.2.~.).8.7.7.7.b.n.n.n.n.n.n.n.m.B.B.M.qXqX>X>X>X+XN N k m b k M N N N N N N N N M ",
"b M N M N N M M n A A A n l q H T.&.&.<.2.2.2.1.2.8.7.7.7.7.9.n.n.n.n.n.n.m.B.B.B.N.qXqX>X>X>XZ.J 9 % $ * 9 9 f k b b b b b z k ",
"m b m M N M M N A N A A A B q h  .$.&.&.2.2.2.2.3.5.5.7.7.7.7.9.n.n.n.n.n.m.B.B.B.B.qXqX>X>XC.r.m k s f b k k k k k b b k k f f ",
"M M N N N N N N N A A A A A S A P } &.&.2.2.2.3.4.5.5.5.6.7.7.7.b.n.n.n.m.B.B.B.B.B.M.Z.>XZ.u.Q N N M m m m f f d f z g b M M M ",
"N N N N N N N N N N A F F F F G F 7 $.&.2.2.3.4.4.5.5.5.5.5.7.7.9.n.n.n.m.B.B.B.B.B.M.0X>Xi.r.L N N N N N N M m M M M M M M M M ",
". . . X # # # # # # # # # $ $ $ $ 3 [ %.2.2.4.4.4.4.5.5.5.5.5.5.7.9.n.m.B.B.B.B.B.B.N.0XC.y.H & $ & & $ $ # # # # # . . . . . . ",
"i a a a a a s s h h k h z l l l l l 7 | 2.4.4.4.4.4.5.5.5.5.5.5.5.6.b.m.B.B.B.B.B.B.B.C.y.^ s s s s a a s s s a i a s s a s s a ",
"$ & % $ % < i a a s s s h h h k l l g [ -.4.4.4.4.4.5.5.5.5.5.5.5.5.j.z.z.l.z.z.z.z.v.u.y.H & $ X . X $ < < < & $ $ & < < < & & ",
"$ $ $ $ X o % < 0 9 0 9 9 9 * 9 0 q q 7 | =.>.4.4.4.5.5.5.5.5.5.,.:.h.l.l.l.l.l.l.x.g.y.! * i * & & & < & < % & : X $ & # # . X ",
": & & & $ X X $ $ % $ * < & * $ o % % , [ X.*.=.4.4.4.5.5.5.5.,.h.h.h.k.l.l.l.l.x.c.V.y.p i a i < < % % & # % < & & : & & & & & ",
"i i i < * % & % & * 9 9 i i i * X X o X 6 | *.*.=.>.4.5.5.>.:.h.h.h.h.j.l.l.l.x.c.c.u.! a i a i a i * % < & $ % & & & < < i i < ",
"- - - - - - - - - - - : : - : # . . . . - { *.*.*.*.=.5.,.:.h.h.h.h.h.h.l.v.x.c.c.g.t.: # $ # # # X X # - # . - # X . - - @ @ - ",
"Z z M A F A A A A F I I G I G G G S V V c E X.X.X.X.X.X.+.#.#.#.;.;.;.;.k.d.d.s.s.s.U n n Z M b M n M M M M N M N N A A A A A M ",
"b s k m M Z A A n M Z Z S S S V V B V v V D U T ] ........O.@.@.@.@.f.a.q.q.q.0.R K m A N M m M M m m m m m m m m m z z z z h h ",
"z h s k h j l l l l n m n A n l B B B B B V C V B J T ] ....o.+.@.a.q.q.0.R K l l l b k l z z z z k k s s k k s s k f z k s s k ",
"k k h a a h n A n m z l l l B Z B l h h j l v v v B l u H 5 ] o.p.0.Y H h j h l l l l l l l b z k k k k q s i a s k k k s f a h ",
"a a k k k k z z z z z b b n l y l y r j l B B B S B B B n l n J J j s h j j l l l l l z z z z z m b z z m k k k f s s s s a s a ",
"a a a a a a s s s d f f f k k j h h f f k z l b b z k f s s h h s s a s s s s s f d d f g g g g g g g g d a a d d a a a a a a a ",
"0 0 * & * & & % % & * & & & & < & & > < > & < > < < < < < < 1 : $ % % % % % 9 0 q q e r t r s h s h h h s s h f f f a s a q q 0 ",
"t r r r r r s s s s a s s s s s s s s s s i i a a s s a a a s & & t y y t t t y y j l B B B B l l l l l l B B B B B l l j j j t ",
"h h t t r s r a q a a a a a a s a s a a i 9 a s s f f f s s s < < a s h y j l u u v B V B v v v l u u l l B S S S S B n l l j h ",
"y t t r q r r r r q q q q q a a e a s s a a s a s s s s s f s < * q e t y y y y l v l l v v B v y w y j l v B Z A S B B n l h h ",
"j t t y t j t r 0 0 0 r q q e e a s s a a a a a s s s s f s a * & i a r y u u l u v B B B B v l v u v v l l j v B B n l y l l l ",
"l n l l j j h h h h h h h k k s k k k s s s s f f s s s s s s & < a s j l B B V C V B C S S G S C C V V B S S S S S S B B B n n ",
": > : : : : - : : : - - - : > : : : : > > , > : : : : : $ # # X . X X # $ $ & & & & & & & < < < < < i < 1 < 1 1 < $ # X . . - : ",
"s d g d a a g d g g g g g g z g b b m m M m m b k k k f s a a a i % % * * q i i a a a s s s f f k z z m m m m m k k f s a i f s ",
"d a a a < 1 1 a d a a 1 a a d g g g d f f s s a s s a a a a a a 0 % 9 0 q q q q a h h k k z h s s j l m m M M m m k f f k s f f ",
"s a a a < < a a a < < < 1 a a a < < < a < < < < < < < < < i a i * 9 e e * % 9 9 q a s s s s % % 9 9 9 s k m M M m k f k z k k f ",
"d < < < < < < > > > > : > < < > < < < < < < < < > > > < < & & < < i a a e s s h s s s s a q 9 0 0 h h k b M M M M m k k z k k z ",
"f < < < < < > < < < > > > < < < < < < < < < < < < < > < < > : < i a a h h k h h j h h k j t t j l M b l z N b m m m m z z z z k ",
": @ = . = + + = = = = . = . . . @ = + @ . . . . @ . . + . . . . . X X $ $ & $ # $ $ > & $ & $ > & & > & > , < < < > < > > > : : "
};
