/* XPM */
static char *e10d72cb4f42442aa4f40211b45df918Kxrf2O7YHXzea4tQ[] = {
/* columns rows colors chars-per-pixel */
"64 64 176 2 ",
"   c #5C3C15",
".  c #543C1E",
"X  c #5A3E1E",
"o  c #60370A",
"O  c #643C0D",
"+  c #6B3E0C",
"@  c #723D0A",
"#  c #783F0A",
"$  c #643F12",
"%  c #6E3E10",
"&  c #4E3A22",
"*  c #523E24",
"=  c #593F20",
"-  c #5D411D",
";  c #67400F",
":  c #6C420E",
">  c #74430D",
",  c #7B440B",
"<  c #76480F",
"1  c #7C490E",
"2  c #664214",
"3  c #6B4414",
"4  c #6B4817",
"5  c #62431D",
"6  c #6A4719",
"7  c #6E4B1B",
"8  c #734612",
"9  c #794612",
"0  c #744913",
"q  c #7B4C12",
"w  c #744C19",
"e  c #7A4F19",
"r  c #7E5016",
"t  c #7D521B",
"y  c #554126",
"u  c #5B4425",
"i  c #5B4628",
"p  c #5E4829",
"a  c #634621",
"s  c #654924",
"d  c #6C4D24",
"f  c #644C2B",
"g  c #684F2E",
"h  c #704E24",
"j  c #6F5126",
"k  c #67502C",
"l  c #6A522D",
"z  c #725226",
"x  c #73562C",
"c  c #6E5630",
"v  c #715731",
"b  c #745A32",
"n  c #795D35",
"m  c #7D6136",
"M  c #7F6338",
"N  c #83460B",
"B  c #854B0D",
"V  c #8B4D0D",
"C  c #904F0D",
"Z  c #87500F",
"A  c #8D510F",
"S  c #92530F",
"D  c #9A570F",
"F  c #9B590F",
"G  c #824E11",
"H  c #894F10",
"J  c #855213",
"K  c #8B5412",
"L  c #8D5915",
"P  c #84551A",
"I  c #89561A",
"U  c #85591D",
"Y  c #8C5A1C",
"T  c #935611",
"R  c #9A5710",
"E  c #945B14",
"W  c #9B5D13",
"Q  c #935E1A",
"!  c #995F1C",
"~  c #A3580F",
"^  c #A25E12",
"/  c #8E611F",
"(  c #956117",
")  c #9D6116",
"_  c #95621A",
"`  c #9B6519",
"'  c #9C6B1D",
"]  c #A36315",
"[  c #A96414",
"{  c #A66817",
"}  c #A96917",
"|  c #A06618",
" . c #A26B1D",
".. c #AB6E1B",
"X. c #B06D19",
"o. c #AC721D",
"O. c #B3721E",
"+. c #855A21",
"@. c #8B5D21",
"#. c #855E2D",
"$. c #8E6123",
"%. c #86622F",
"&. c #88622E",
"*. c #946322",
"=. c #996522",
"-. c #9C6C23",
";. c #92662A",
":. c #94682B",
">. c #9C6C2C",
",. c #9E702E",
"<. c #826336",
"1. c #8C6631",
"2. c #8F6A35",
"3. c #836539",
"4. c #87683B",
"5. c #8C6C3D",
"6. c #946C35",
"7. c #996F35",
"8. c #916E3C",
"9. c #986F38",
"0. c #8F703F",
"q. c #977037",
"w. c #9A7137",
"e. c #93713E",
"r. c #9B733A",
"t. c #A36C23",
"y. c #AA6F24",
"u. c #A37224",
"i. c #AB7423",
"p. c #A4742A",
"a. c #AA7628",
"s. c #A6782C",
"d. c #A9792C",
"f. c #A47531",
"g. c #A77A34",
"h. c #A0753B",
"j. c #A37A3E",
"k. c #A47A3D",
"l. c #A47B3F",
"z. c #A97B3C",
"x. c #AB7E3E",
"c. c #937340",
"v. c #957340",
"b. c #967441",
"n. c #997642",
"m. c #9A7743",
"M. c #9D7A44",
"N. c #9E7A45",
"B. c #9F7C46",
"V. c #A37A40",
"C. c #A57B40",
"Z. c #A77D40",
"A. c #A27D46",
"S. c #A27D47",
"D. c #AB7E40",
"F. c #A47F48",
"G. c #A57F48",
"H. c #AF803E",
"J. c #A68046",
"K. c #AE8342",
"L. c #AD8245",
"P. c #A68149",
"I. c #A9834B",
"U. c #AA854B",
"Y. c #AF864A",
"T. c #AB854C",
"R. c #AD864C",
"E. c #AF884D",
"W. c #B28543",
"Q. c #B78844",
"!. c #B1874B",
"~. c #B38C4F",
"^. c #B58D50",
"/. c #B88F51",
"(. c #BA9152",
"). c #BA9153",
/* pixels */
"W W R W W W W _ 6.e.e.e.e.e.e.6.U r r r q q q q q q J J J J J 0 q J J J J J G J J L L J L L L *.6.e.e.e.e.e.e.6.=.( ( ` ( ` ) W ",
"W W W W W W W ! 6.v.v.b.b.b.b.6.P q q J J J J J J J J J J J K q q J L L L L L J J J J J L Q ( =.6.v.v.b.b.b.b.r.=.) ) ) W ) ] W ",
"T T T T S S T _ 9.v.v.b.b.b.b.6.U q q q J J J J J J J J J J J q q J J J J J J J J J q q q L Q -.r.v.v.b.n.b.b.r.=.W W W W W W T ",
") W R R _ =.=.>.h.N.n.b.e.5.5.6.+.P P P P U Y U @.@.@.@.@.*.*.@.@.@.@.@.@.$.*.*.$.+.@.$.*.*.=.>.j.N.n.b.e.5.5.6.>.-.-.=.) ) | W ",
"T T K V z.D.D.L.Y.U.S.v.4.<.<.5.q.r.r.r.r.r.r.r.r.r.r.j.C.Z.Z.V.V.C.k.k.k.k.j.k.k.Z.Z.D.D.D.D.L.Y.U.B.c.4.<.<.5.r.h.r.w.J V K K ",
"V V V B /./.^.^.~.T.N.5.<.m <.5.N.P.P.F.F.F.P.I.I.I.U.U.R.E.~.E.E.~.~.^.(.(.(.(.(.(.(.(.(.(.(.(.(.~.B.5.<.m 4.b.P.R.R.I.E K K A ",
": : o o ^.^.R.I.S.n.5.<.m <.4.c.n.N.N.N.S.F.I.I.I.P.S.B.N.N.S.N.N.S.U.~.^./.(.(.^.^.^.^.^./.^.(.^.I.c.<.m 4.n.U.~.~.~.R.8 8 8 3 ",
"L L J K F.F.N.v.4.m n b n m 4.5.5.5.5.c.b.n.N.N.N.N.b.e.5.5.5.5.5.8.b.N.F.P.P.P.P.P.P.P.P.I.I.P.N.5.m b b 4.N.I.I.P.P.S.J Y L L ",
"L L L Q 3.4.<.n c f f f l b n m m m <.<.4.4.4.4.4.4.<.<.<.m m n n m m <.4.4.4.4.4.4.4.4.4.5.5.4.n l f f l n 4.5.5.4.4.4.J J J J ",
"L E Q Q l l l f i y y p f l v x l v b b b b b b b b b b b b v l l l l l l x b b b b b b b b v f i y y p k c b b b b b b q J q J ",
"Q Q Q Q f f i y * * * i f l l l l l l l l l l l l l l l l l l l l l f f f k l l l l l l l f i y & & * i f l l l l l l l q q q L ",
"Q Q Q Q z d a = & & & y i p f f z z z z z z z z z z z z z j j d d s s s s s d d d d d d j s u . & & & y i p f f s d d d q q q L ",
"0 0 0 0 w w 2 5 . & & * * * y a 7 8 0 0 0 w 0 0 8 8 0 0 0 3 2 2 2 2 2 4 4 4 4 4 4 4 3 3 4 2 2   . & & * * * y u 6 2 2 4 O : + 8 ",
"B B B K K B @ 9 h f f f f i * 5 G J K E Q Q W V V W W , V W A , B V V S S T W ) ] ] ] ] ] S N 9 d f f f f i * X q N N V N B B B ",
"B Z J K K J @ 9 &.4.4.4.4.b i - q J J J J H V , V V V V N V V + @ N , , B V S S S S D V S V N G #.4.4.4.4.b i X + , N B # , , N ",
", , , , , A , I 6.n.n.N.n.4.l 5 9 B B B V T R R S S B N N S S > @ , , , , , N B V V C V V V B I 6.n.n.N.n.4.l 5 % @ # , , , , > ",
", > > B B K E _ 7.n.n.N.N.5.n z J A V V V S A T T A V V V V V > , B B V V V V V S S V S V B B P 6.n.n.N.N.5.n d 9 , , , , > , > ",
"B H J J J J K Y 6.v.v.n.n.e.4.#.K B V B B B B V V V V V V V B > , B B B B B B V S S S S A V B I 6.b.b.n.n.e.4.#.P A T Z B B B B ",
"K K J J G J J Y 6.v.v.b.b.v.e.6.I B B B B B B V B V V V V B B > , B B V V V V K V J J H H H G I 6.v.b.b.b.v.e.6._ L Q ( Q L L J ",
"K K K K =.-.-.f.j.n.v.e.e.5.5.r.,.-.=.=.=.*._ _ Y Y Y I P P t t t t P +.+.@.@.@.$.@.@.@.@.$.@.;.q.v.e.c.e.5.5.8.:.@.@.@.J J J J ",
"W W ) W H.W.W.Q.!.P.b.4.4.<.<.e.L.Q.Q.W.W.x.k.w.7.6.6.6.6.6.6.6.6.6.w.h.D.L.D.D.D.D.D.D.D.D.k.j.n.v.5.4.4.<.<.8.Z.L.W.z.T R W W ",
"R T W T /.(.(.(.(.R.b.4.m m <.8.P.~.(.(.(.^.E.I.S.S.S.S.S.S.N.N.n.n.N.F.Y.~.~.E.E.E.E.~.~.R.U.P.N.b.5.4.m m 4.n.E.(.(./.S A A T ",
"T R W ) ^./.^.(.^.P.5.m n <.4.e.N.P.~./.(.^.~.~.~.E.E.E.E.R.I.S.N.N.n.N.N.B.B.N.N.N.N.B.S.N.N.N.n.e.4.m m 4.N.U.^./.(./.A S T T ",
"T W W W J.I.I.P.N.5.m b b m 4.5.5.c.N.P.P.P.I.I.I.I.I.I.I.P.S.N.b.v.e.8.5.5.5.5.5.5.5.5.8.e.e.5.4.<.n b b 4.N.I.U.P.P.F.A S S S ",
"S T T R 5.5.5.4.n c f f l b n m n m <.4.4.4.5.5.5.5.5.5.5.5.4.4.4.4.<.<.<.<.<.<.<.<.<.<.<.<.<.m v g f f l n 4.5.5.4.4.4.A K S S ",
"q q q q b b x f i y y p f l v x x l l l x b b b b b b b b b b b b b b b b b b b b b b b b b v l i y y p k c b b b b b b 0 0 q q ",
"( Q ( Q k f i y & & * i f l l l l l f f k k l l l l l l l l l l l l l l l l l l l l l l l f p y * * * i f l l l l l l k ( ( ( ( ",
"E K K K z d 5 X & & & y i p f f z z z z z z z z z z z z z z z j z z z z z z z z z z z z z s a X & & & y i p f f j z z z ( Q Q E ",
"J K K K t t e w - & & * * * y a t J Q L L L L K E Q Q Q L J I P J J J J J J G J P P P I P r e 6 . & & * * * y s t P r P K K J J ",
"J G J J K L L P d f f f f i * 5 K D W S S S D D ^ W D S S S A B B S V Z A V V V B J K T K J J e s f f f f i * 5 t L L L J G G J ",
"J J J J J J J Y &.4.4.4.4.b i 5 J R W W W W W W W D S S S V V B B V B Z K T K K K J H J J Z B I %.4.4.4.4.b i - e J J J J J J G ",
": : : : : : 3 t 2.n.n.N.n.4.l - 3 , , 1 , > , > > > @ > > + + O O + O O + + : : : : : : : : : e 2.n.n.N.n.4.l X   o O O O ; : : ",
"' ' ' ' ' ' -.-.r.n.n.N.N.5.n x -.i.o.i.i.i.i.O.o.......o.....o...) ` ' Q ` ' ' ( ` ' u.u.u.u.p.r.n.n.N.N.5.n x $.-.-.-.-.-.' ' ",
"( ' ` '  . . .u.w.v.v.n.n.c.4.&.' ] T T { o.....} ] ] ] { ] ) ] ] ) R ( Q Q ( ( K E Q ( ` ' ` -.q.v.v.n.n.c.4.1.-.' ' ' ' ' ' ` ",
"( ` ' ` ' ' ` t.w.v.v.b.b.b.c.1.' { V V V W { } ..{ W ( ) ) W Q ) ] R E ( Q ( ` ` ( ( ` ` K E _ 6.v.v.b.b.b.c.6._ ( ( ( ( ( ( Q ",
"( ( ( ` u.p.u.f.Z.N.b.v.e.5.5.6.=.Q Q =.t.y.y.i.i.i.u.a.a.a.a.a.a.i.i.p.p.p.s.d.d.d.d.s.s.p.s.g.V.N.n.b.e.5.5.6.:.*.=.=.Q Q L L ",
"_ ` ' ' L.K.W.!.~.P.n.5.4.<.<.4.q.k.L.Q.Q.W.W.W.W.W.W.W.W.W.W.W.W.W.W.W.K.K.W.W.K.K.K.K.K.K.W.!.!.U.S.v.4.<.<.4.6.q.6.6.( _ ' _ ",
"' ' ' ' ^.(.(.(.(.E.n.4.m m 4.5.v.S.U.~.~.E.E.E.E.~.~.~.~.~.~.~.~.~.^.^./.(.(.(.(.(.(.(.(.(.(.(.^.T.N.5.<.m <.4.e.n.n.n.` _ _ ` ",
"O O O + ^./.^.(.^.P.e.m n <.5.b.n.n.N.B.S.N.N.N.S.S.F.P.I.I.I.I.U.T.E.~.^.^.^.^.^.^.^.^.^.(.(.^.P.N.5.<.m <.4.e.b.b.b.b.O O O O ",
"H J J J J.I.I.P.N.5.m b b <.e.b.v.8.5.8.5.5.5.5.8.e.v.b.n.n.n.n.n.N.N.S.P.P.P.P.P.P.P.I.P.U.I.N.5.M n b n <.5.e.e.0.0.5.J J J J ",
"> > , > 4.5.5.4.n l f f l n <.4.4.<.<.<.<.<.<.<.<.<.<.4.4.4.4.4.4.4.4.4.4.4.4.4.4.4.5.5.5.5.4.m v f f f l n <.4.4.<.<.<.q q > > ",
"> > > > b b v f i y y p k c b b b b b b b b b b b b b b b b b b b b b b b b b b b b b b b b l f i y y p k c b b b b b b : > O + ",
"9 > > > k f i y & & * i f l l l l l l l l l l l l l l l l l l l l l l l l l l l l l l l l f i * * * * i f l l l l l l l > > > > ",
"G G G q d s - . & & & y i p f f s d d d d d d d d d d d d d d d d d d s d d d d d d j j j d u . & & & y i p f f s d s d q G G q ",
"3 3 3 3 4 4 4 - . & & * * * y u 5 $ 2 $ 3 8 3 3 8 3 3 3 2 2 3 3 4 3 3 2 3 3 3 3 4 3 4 3 3 3 2   . & & * * * y u 6 4 2 4 3 ; ; 3 ",
" .Q '  . . . .=.x f f f f i * d ' ..[ [ ~ ~ [ D ^ [ [ [ ] W W [ [ W W ` | | ` ` ) ` ` ` ` | ` Y z f f f f i * s / '  . . . . .` ",
"( K E ( ` `  .=.1.4.4.4.4.b i 5 Q ] [ ^ [ X.O...^ ] ^ [ W ] | ] ] W ) ]  .{ | W ` | (  .' ` ( =.1.4.4.4.4.b i a U ( Q Q Q Q T E ",
"Q T K E E R W =.w.n.n.N.n.4.l a Y ] ^ { ] [ } [ ] ] W W W W W W W F W W ) ` ) W W W ( E W Q Q =.w.n.n.N.n.4.l a q E L Q E L L E ",
"E E E J J T ) -.w.n.n.N.N.5.n x Q W T T R W ^ ^ ^ ] W F W S R W W T S T T R T W W W W W W W ( =.w.n.n.N.N.5.n d P E E E K L J T ",
"J J L E E E Q =.6.v.v.n.n.e.4.#.Q S A R W ] ] { { { ] ] ) W ) ] ) R T T R R W W W W W Q Q Q Q *.q.v.v.n.n.e.4.%.Y J L K K K K J ",
"J J J J J J J $.6.v.v.b.b.v.e.6._ E L L E Q W ( ( Q Q L K K E E K K J K K K K J L L L L L L L *.q.v.v.b.b.v.e.6.$.J J J J J J J ",
"B B 1 1 U U @.;.r.N.b.e.e.5.5.6.;.@.@.@.+.+.@.+.@.@.@.@.@.@.$.+.P U U Y I I I Y I I Y Q Q Q *.>.j.N.n.b.c.5.5.q.>.=.*.*.J B B B ",
"S A A A z.D.D.W.!.P.b.4.4.<.<.8.Z.L.L.D.D.z.z.z.D.D.D.D.D.D.D.k.k.z.x.x.z.k.k.h.7.6.6.7.7.h.x.!.!.U.B.v.4.<.<.e.D.W.W.x.R R R S ",
"T T S A /./.^.^.~.P.v.4.m <.4.n.E.(.(.(.(.(.(.(.(.(.(.(.(.(.(.(.(.(./.^.^.~.E.P.N.b.b.b.b.S.~.(.(.~.B.5.<.m 4.n.E.(.(.(.W W R S ",
"S S A A /.^.R.P.S.b.4.m m 4.N.U.^.(.(./.^.^.^.^.^.^.^.^./.^.^.^.^.^.^.~.~.~.~.I.N.b.b.v.b.S.E.(.(.I.c.<.m 4.n.U.^.^.(./.) W T T ",
"R S S S S.S.n.c.4.m n b b 4.n.P.P.P.P.P.P.P.P.P.P.P.P.P.P.P.P.P.P.P.P.P.P.P.S.N.c.5.5.5.5.b.S.P.B.5.m b b 4.N.I.U.P.P.J.S W W W ",
"W ) W W 3.4.<.n c f f f l n <.4.4.4.4.4.4.4.4.4.4.4.4.4.4.4.4.4.4.4.4.4.4.4.4.4.<.m m m m <.4.<.n l f f l n 4.5.5.4.4.5.] ] ) ) ",
"8 0 8 8 l l l f i y y p f l l l l l l v b b b b b b b b b b b b b b b b b b b b v c l l l l l f i y y p k c b b b b b b O O : 8 ",
"J L L L f f i y * * * i f l l k f f f k l l l l l l l l l l l l l l l l l l l l l l l l l f i * & & * i f l l l l l l l J G L L ",
"L J J J d s u = & & & y i p f f j z z z z j j j z z j j d j j j d d d d d d d d j z z z z d 5 . & & & y i p f f j z z z Q L L L ",
"J J J J e w w 6 . & & * * y y s 7 w w t w w w w w w w w w e t e q e r r 0 0 q q q r P P P J 9 $ . & & * * y y s +.U P P Q Q E L ",
"L q q q q q q w s f f f p u * u w q q q q q q q q 0 0 q q > > q q H J J Z K K T K K K K J V N q d f f f p u * s Y ( Q E Q E Q Q ",
"L q q q q q 0 t <.4.4.<.n l i a w q q q q q q q q q 0 q q 0 8 q G J J E E E T T E E E E R S S Q 1.4.4.<.n l i d Y ( ( Q Q Q Q Q ",
"8 ; 2 O 2 $ $ 7 1.5.5.4.<.v f u 2 2 $ ; O O O O O O O O O O O O O + + > > > > : > > 0 < > < > t 1.8.8.5.<.v f a 0 0 q 0 0 0 8 8 "
};
