/* XPM */
static char *_087d3d4fb1e431ed2044cf6f60cffc11t3Emp4IayJN6uWW[] = {
/* columns rows colors chars-per-pixel */
"64 64 95 2 ",
"   c #62370B",
".  c #643C0D",
"X  c #6B3E0C",
"o  c #733D0A",
"O  c #783F09",
"+  c #633F10",
"@  c #67400F",
"#  c #6D420E",
"$  c #74440E",
"%  c #7B440C",
"&  c #76480F",
"*  c #7C490E",
"=  c #654110",
"-  c #6D4411",
";  c #724711",
":  c #784710",
">  c #744912",
",  c #7B4C12",
"<  c #7E5114",
"1  c #82460B",
"2  c #844B0E",
"3  c #8A4D0D",
"4  c #934F0D",
"5  c #87500F",
"6  c #8C510F",
"7  c #93530F",
"8  c #9A550E",
"9  c #9C590F",
"0  c #834E11",
"q  c #884F10",
"w  c #855213",
"e  c #8E5512",
"r  c #8E5613",
"t  c #885514",
"y  c #8B5614",
"u  c #865817",
"i  c #8B5815",
"p  c #8A5816",
"a  c #8E5814",
"s  c #8F5B17",
"d  c #8B5B19",
"f  c #935410",
"g  c #945611",
"h  c #965610",
"j  c #9A5710",
"k  c #905813",
"l  c #975911",
"z  c #955B13",
"x  c #935B14",
"c  c #915D17",
"v  c #935C16",
"b  c #945F17",
"n  c #965F17",
"m  c #9B5A12",
"M  c #9C5A12",
"N  c #985C13",
"B  c #9A5C13",
"V  c #9D5F13",
"C  c #9B5B14",
"Z  c #995E15",
"A  c #9C5F14",
"S  c #925F19",
"D  c #A0560E",
"F  c #A25A0F",
"G  c #A25D11",
"H  c #956117",
"J  c #966017",
"K  c #986017",
"L  c #9F6115",
"P  c #9C6016",
"I  c #976118",
"U  c #966219",
"Y  c #996319",
"T  c #9C6218",
"R  c #9A6419",
"E  c #9B651B",
"W  c #9C6418",
"Q  c #9C651A",
"!  c #9D6B1D",
"~  c #A06115",
"^  c #A36315",
"/  c #A96514",
"(  c #A66917",
")  c #AA6917",
"_  c #A26618",
"`  c #A36C1C",
"'  c #AA6D1A",
"]  c #B06D19",
"[  c #A3711E",
"{  c #AC721D",
"}  c #B3721E",
"|  c #9D6E20",
" . c #9F7020",
".. c #A27322",
"X. c #AC7420",
/* pixels */
"A B l B B V V m B l x e e w 3 0 < < < < , , > , , , w < w w w > , w w w w w w w w p a t a a d c a c c S S S S I Y I K E Y T P Z ",
"A C m M M M M m 7 7 7 f e 3 1 * , > , w w w w w w w w w w t t , , t a a a p p t t w w w a S I I b b K K T K K T P P P P A ^ ^ A ",
"g g f g 7 7 g f 6 6 3 3 2 * % % , > > , w w w w w w w w w w w > > w t w w w w w w w , , > p S I b I Y E Q Y Q Y K Z Z Z Z Z C g ",
"P V l l 7 7 7 3 2 2 $     . X X # $ $ $ & 0 w , w 0 w 0 0 w w > > , > , , w w w , $ , w w t p t c J c c c b b b Y Y K P P P _ Z ",
"f g e 3 3 6 3 1 % o o $ % % $ $ $ $ $ % 0 w 2 * w w > > > > > X # $ : ; : : $ $ $ , w w w w w 0 w q 0 0 w w t e e e w e w 3 e e ",
"3 3 3 2 2 3 2 2 2 % % % % % % $ $ $ $ % 0 t a e a d w 0 0 , 0 $ $ & $ > , , , , 0 w t t w w w w w t t c c c c c x x x l x e e 6 ",
"# #       . # # ; > ; ; ; > ; # # # # # # - # # # # # X X X X X X X # ; ; ; ; > ; ; > > > > ; ; ; ; ; ; ; ; ; > ; ; ; ; ; ; ; - ",
"a a w t a c c b I I I I I I b c c c a t t t w w q q 2 1 * * % 0 w w w t a c c b J I I I I I J S S d d d p p d d p d w w t d p p ",
"a a a c c a S I I E Y J b c x 5 5 f b b b x x e 5 5 5 3 3 2 & 1 w w w 0 , w w w w w w p p t t p d d u w , w w w w w w , w w w t ",
"a c c c c a c I E E I b x 1 3 % % % 3 w w w 2 2 1 1 % * 5 w 2 * 0 q 0 , > > , , , , , , w , > : w w < , > > , w w , , , , w , w ",
"c S c b c b b E Y E E Y b l x 3 3 2 3 e e e e f f e e 6 e w q , > $ $ > > : > > , , , , , , , , , , > > : > > > > , , , , , , a ",
"c S S b K I I Y E Y ! b B K E K Z f f l b l l l g f b l x w q 0 > > > > , > > , , , , > , , 0 0 , , , > : : > > , > , , , , , a ",
"> > > > , , ; > , , , , & > & & & $ & $ & > $ $ $ $ $ $ $ # X . . X . # # # # - - - - - - # # . . . . X . . # # # . . # . # X ; ",
"2 3 q t t 2 o % f b l f x c f 5 w w e x b b Z 3 3 M V % 3 M 6 % 2 3 3 7 7 g m P _ _ ^ P ^ 7 1 1 1 % % % % % 1 1 3 1 1 3 1 1 2 2 ",
"3 5 w e e w o o f e 6 f e e e 5 w w w w w q 3 1 3 3 3 3 1 3 3 X o 1 % % 2 3 7 7 7 7 8 3 7 3 1 1 1 % o o o o o o O % 1 1 O % % 1 ",
"% % % % % 6 % 1 3 3 w e w e e 3 2 2 2 1 3 f l l 7 7 1 1 1 7 7 $ o % % % % % 1 2 3 3 4 3 3 3 1 1 1 1 o o o o o 1 O o o % % % % $ ",
"% $ $ 1 1 e a x x x e K K b l f 7 6 3 3 3 7 6 f 7 6 3 3 3 3 3 $ % 2 2 3 3 3 3 3 7 7 3 7 3 1 1 1 % % o o % % % % % % % % % $ % $ ",
"3 q w 5 w w t e e e e e w 3 1 2 3 3 3 2 2 2 3 3 3 3 3 3 3 2 2 $ % 2 2 2 2 2 2 3 7 7 7 7 6 3 3 2 3 3 3 3 3 w 3 q q e f 5 2 1 1 2 ",
"t t w w 0 w w w w w w w q 3 1 1 3 1 3 2 3 3 3 3 3 3 3 3 3 3 1 $ % 1 3 3 3 3 3 f 3 w w q 3 q 0 0 , 0 w w t p a a p a c J c a a t ",
"t t t t a a c J I c x e e e e a c c a e e e f e e e 3 3 * & $ > $ & > > > > > , , , , , , < , , , < , , , w w 0 2 , 0 w w w w w ",
"A Z P B ^ _ ' ' ^ ^ ^ G G ^ ^ ^ ) ) ) ' ) / F G G G V 8 f e w q q w t t t t w t w w q w w t t e w e e e e 5 3 6 f f f f f l m m ",
"l g m 7 B m ^ P V j 9 8 M 8 8 F 8 M M M 8 9 V 9 8 8 9 7 7 5 1 w w t e a a t t t w t w w t t w 5 3 3 3 3 3 2 2 2 3 7 g 7 7 6 6 g ",
"g l m P ^ ' ' { ' ' ^ M M 8 8 8 ^ ^ / ) / G G 9 9 8 7 7 7 e w e t t t t a c c t t t 3 q 6 t e e e w 3 3 5 5 5 3 3 3 6 6 6 7 f f ",
"g m m V A ^ ' ' ' ' ^ G G G F G ^ ^ ^ ^ / ^ ^ G 9 9 8 7 g f e w w w t w w t w w w w 0 w w t t w t t w t t e e w w e 6 6 6 7 7 7 ",
"7 f g l m m V A V ^ G G G V G V M V G V V m 7 7 7 7 3 3 7 7 7 5 e t w t w p t t w w w t a t t e e t t e t w w w w w w 6 6 e 7 7 ",
"> > > , , , , , , , , , , , , , w 2 2 2 2 w 0 0 2 * & $ % $ $ # # $ $ & & & & $ $ > $ ; $ $ ; > > ; ; ; > > > > > > ; > > > > > ",
"J b K b B l B l l m B V l V ^ P ^ ^ G ^ ^ ^ ^ G G V V 9 l 7 7 3 3 l 6 7 g l B P P P P T Y Y Y I I E Y I K Y I Y I I I b Y Y K K ",
"c t e e e e e x x b B B m 7 7 7 8 9 V G V P V ^ ^ V V V m 7 7 5 6 g 7 7 7 f f l b x e a a a a c c c c c c c c S I I b b I b c x ",
"t t t t t w t c c c b l f 2 * 5 g 7 ^ V m 8 9 8 G ^ ^ P m l l e 6 l g g 7 6 3 5 f x x c e w w w w t e e e w w e t t w t t t w w ",
"w 0 w w t a a e a c x f f 3 3 7 7 7 m 7 7 7 9 8 G V 9 7 7 7 6 3 3 7 3 5 6 3 3 3 3 w e f e 5 w w 0 w 0 , , , 0 t t p a a w 0 0 w ",
"w w t w w w w e e e x g f 6 7 7 7 l B V V V V M 9 8 7 7 7 3 3 1 2 3 3 5 6 7 e w t w q w 5 5 3 5 t t w w 0 0 w w w w w w w w w 0 ",
"# # # # # # - # $ $ & $ $ % & & $ % % & % % % $ $ $ o $ $ X X . . X . . X X # # # # # # # # # # # # . X X X .     . . . . @ # # ",
"! ! ! ! ! ! | ! ` ! Q ! ` ` ` ` X.X.{ X.X.X.X.} { { ' ' { ' ' { ' P Q ! b E ! ! J E ! ................| ! ! ! | | |  . .| | ! | ",
"J ! E ! ` ` ` ` ` ` Q K Z l 7 ^ ^ ^ g g ^ { ' ' ) ^ ^ ^ ( ^ P ^ ^ P l K c c J J e x c K E ! E E ! ! c I J b E ! ! ! ! ! ! ! ! E ",
"J Q ! E ! ! Q Q P ` ` ` P V 3 7 ^ ( 3 3 3 m ^ ) ' ^ P K Q P Z b P ^ l x K b K Q E J Y E E e x e w 1 % $ * 1 1 a c c J J J J b c ",
"I J I E ! E E ! ` ! ` ` ` ^ 3 g m 7 6 7 V ^ ^ ^ ) ( ^ ` ' { ' ` ` ( ` ` ! ` [ ....[ ..[ [ !  .! I c e a J c c b c c b b c c a a ",
"Y E ! ! ! ! ! ! ! ` ` ` ` ` ' ` ' ` ' { ' ' { ' ' ' ` { { { { ' ` ` ` ` ! ! ` ` ! ! ! ! ! E ! ! ! ! E I I I a a t a S d J Y E Y ",
"! ! ! ! ! ! ! ! ! ! ` [ [ [ { { { { { { { } { { { { { { ` ` ` ` ` { [ ` ! ! ` [ ! ! ! | ..[  .| ! ! ! ! ! ! E I Y Y Y E E Y Y ! ",
". . . X # # # # # # # # # $ $ $ $ # # $ # # # $ $ $ $ # X X X . . # # # # $ & & & > > & $ $ > $ $ $ $ $ $ # # # # # . . . . . . ",
"q w w w w w e e f f l f l Z Z m m m m f f 3 7 M G M M 3 3 3 3 % 1 7 2 3 3 e e e e e e e t e t t t e w w t t e w 0 w t t w t t w ",
"$ $ % $ % , q w w e t e f x f l C C m g f 6 1 7 7 7 7 3 1 1 3 % % 2 $ % $ X o o $ $ $ % % $ $ $ X . X $ > , , > $ $ % > > > $ $ ",
"$ $ $ $ X $ % * 2 1 2 1 1 1 * 1 2 3 3 6 3 2 1 2 3 3 1 % o $ 1 % 1 % $ $ $ $ % % % 1 1 0 0 * 0 * $ $ : > $ > % $ : $ $ $ # # . X ",
": $ $ $ $ X X $ $ % $ * * % * $ o $ % % % 2 2 % 2 2 1 % $ % % o % % % % % $ % % 1 0 0 0 q 0 w 0 , > % $ $ $ % > > > : $ $ $ $ $ ",
"0 0 0 , * % $ % > , 1 1 0 0 q * X X o X % 1 1 1 1 1 1 % % % 1 o $ 1 % % % 3 q q w q w w w q w 0 w 0 * % , $ $ % > $ > > , 0 0 , ",
"- - - - - - - ; - - - ; ; - ; # . . . . $ $ X X $ $ $ $ X X $ # # $ X X # $ $ # # $ # # # $ # # # X X # - # . - # # @ - - @ @ - ",
"` b ! ` ` ` ` ` ` ` X.X.{ { { { { ' ) / D F / 8 G / / ^ ^ B m ^ / M Z Q _ _ Q Q P Q Q T Q _ Q K Q T E E E E ! E ! ! ` ` ` ` ` E ",
"Z e c Y Q Q ` ` T Q _ _ ' ' ' ^ ) ^ ) G / ] } ' G ^ G ^ V ^ _ ^ ^ V P ^ ` ' _ Z Q Q Y ! ! Q Y Q E Y Y Y I I Y I I I b b b b f x ",
"l k e c x l Z Z Z Z T Y T ` P A ^ ^ G ^ ^ ) ) ) ^ ^ M M 9 M m V V 9 m m P Q Q b Z Z K l Z b b b b c c t t c c t t c a b c t t l ",
"c c x w w f P ` P Y b Z Z A ^ ( ^ m f g j M G G G ^ V 9 m 7 j V M g 6 f g l g B Z Z Z Z Z Z K b l l c c q e q w t c c c e a w f ",
"w w a c c c b b S b b K K P A 7 m 7 6 l V ^ ^ ^ ' ^ ^ ^ P V P ^ P l e f l l B Z Z Z Z b b b b b I I b b I c c c a t t t t t t w ",
"w w w w w w t t t p a a a c c l l x a a c b Z K J b c x e t x x e t w t t t t t a p p a d d d d d d d d p w w u u w w w w w w w ",
"2 2 * & * & & % % & * & & & & > & & > > > $ > > > , , , > > < ; $ % % % % % 1 2 3 3 5 6 7 6 e f e f f f e e x a a p w t w 3 3 2 ",
"7 6 6 6 6 6 e e e e w t t t t t e t e t t q 0 w w t t w w w t & & 7 7 8 7 7 7 7 8 m V ^ ^ ^ ^ G M M M M V ^ ^ ^ ^ ^ V B l l l 7 ",
"f f 7 6 6 e 6 w 3 w w w w w w w w t w w q 1 w t t a a a t t t > , w f g 7 8 M 9 F G ^ / ^ G G G M 8 8 M M ^ ) ) ' ' ^ ^ A m l f ",
"7 7 6 6 3 6 6 6 6 3 3 3 3 3 5 5 5 5 t e w w e w t t t t t a t , * 3 5 7 7 8 7 8 M G M M G G ^ G 8 4 8 j M G ^ ( ' ) ^ ^ P m f f ",
"l 7 7 7 7 l 7 6 2 2 2 5 3 3 3 5 5 t t w w w w w t t t t a t w * & q w 7 7 9 8 M 8 G ^ ^ ^ ^ G M G M G G M M j V ^ ^ P A 7 m m B ",
"A P Z B l l f x f x x x x c c e c x c e t t e a t t t t e t t & > w e l V ^ ^ ^ ) ) ^ ) ' ' { ' ) ) ) / ^ ) ' ' ' ' ' ^ ^ ^ P P ",
"; > ; ; ; ; - ; ; ; - - - ; > ; ; - ; > > > > ; > ; ; ; $ # # X . X X # $ $ $ $ & $ $ & $ > > > > , w , < , < < > $ # X . . # ; ",
"t p d p w w d p d d d d d d S d J J I I Y I I J c c c a t w w w 0 % % * * 3 q q w w w t t t a a b b I Y I I I I c c a t w 0 a t ",
"p t w w , < < u w w w < u w p d d d p a d t t w t t w w w w w w 2 % 1 3 3 3 3 3 w f f c l b x e e l Z Y Y E E I I c a a c t a a ",
"t w w w , , w w w , > , w w w w > , , w , , , , > , > , , q w 0 * 1 5 5 * % 1 1 3 w e e e e % % 1 1 1 e c I Y E Y c a c b c c a ",
"p > , , , , , > > > > ; > , , > , , , , , , , , > > > > > $ $ , , q w w 5 e e f e e e e w 3 1 1 2 f f l K E E E E I c c b c c S ",
"a , , , , > > > > > > > > , , , , , , > , , , , , > > > > > : > 0 w w x x l f g l x x l l 7 7 l Z Q K Z b ! K Y Y I I b b S S c ",
"; @ = . = + + = = = = . = . . . . = + @ . . . . . . . . . . . . . X X $ $ $ $ # $ $ > & $ & $ > & $ > $ > > , , , > , > > > ; ; "
};
