/* XPM */
static char *a7595bd497fc4a9c8191d64902a4faecZe5Jy9NmZhl5x82p[] = {
/* columns rows colors chars-per-pixel */
"64 64 200 2 ",
"   c #1E1302",
".  c #241705",
"X  c #241805",
"o  c #281906",
"O  c #221708",
"+  c #261A0A",
"@  c #2B1D0D",
"#  c #3B1B05",
"$  c #381D0A",
"%  c #2E1F10",
"&  c #311E10",
"*  c #2F200D",
"=  c #31210E",
"-  c #3E270F",
";  c #2E2111",
":  c #332312",
">  c #3A2712",
",  c #3C2913",
"<  c #401C07",
"1  c #421E0B",
"2  c #44220D",
"3  c #4A250D",
"4  c #492310",
"5  c #422B14",
"6  c #422D1C",
"7  c #46301E",
"8  c #62370B",
"9  c #643D0D",
"0  c #6A3E0C",
"q  c #733D0A",
"w  c #783F09",
"e  c #633F10",
"r  c #452F20",
"t  c #443020",
"y  c #4D3724",
"u  c #4F3B2C",
"i  c #553824",
"p  c #553A26",
"a  c #4C3D32",
"s  c #513F32",
"d  c #693C25",
"f  c #663E2B",
"g  c #693E2F",
"h  c #733E2E",
"j  c #6A3F30",
"k  c #67400F",
"l  c #6C420E",
"z  c #74440E",
"x  c #7B450C",
"c  c #76480F",
"v  c #7C490E",
"b  c #654110",
"n  c #6D4411",
"m  c #724710",
"M  c #744A12",
"N  c #7B4C12",
"B  c #7E5114",
"V  c #534033",
"C  c #6D4126",
"Z  c #6E442C",
"A  c #6F492F",
"S  c #73442C",
"D  c #74492E",
"F  c #7F512E",
"G  c #694834",
"H  c #714535",
"J  c #794232",
"K  c #734B35",
"L  c #7A4F32",
"P  c #7D4A3A",
"I  c #7E5233",
"U  c #7F5139",
"Y  c #775648",
"T  c #82460B",
"R  c #834B0E",
"E  c #8A4E0E",
"W  c #964E0C",
"Q  c #87500F",
"!  c #8C510F",
"~  c #92530F",
"^  c #9B560E",
"/  c #9E5A0F",
"(  c #824E11",
")  c #884F10",
"_  c #855213",
"`  c #8B5412",
"'  c #865817",
"]  c #8D5915",
"[  c #8C5B19",
"{  c #925611",
"}  c #9A5611",
"|  c #935B15",
" . c #9B5C13",
".. c #935E18",
"X. c #A25D11",
"o. c #956117",
"O. c #9A6117",
"+. c #9C6116",
"@. c #966219",
"#. c #9A6419",
"$. c #9C6B1D",
"%. c #A36315",
"&. c #A96514",
"*. c #A76817",
"=. c #A36C1C",
"-. c #AA6C1A",
";. c #AB701D",
":. c #874A3B",
">. c #8B4C3F",
",. c #815336",
"<. c #82543A",
"1. c #8A5739",
"2. c #865A3D",
"3. c #8C5B3D",
"4. c #945F3E",
"5. c #9D6E20",
"6. c #94623F",
"7. c #8C4E40",
"8. c #8F5042",
"9. c #865942",
"0. c #8E5E42",
"q. c #975A43",
"w. c #925E41",
"e. c #856146",
"r. c #8A6144",
"t. c #956142",
"y. c #9A6244",
"u. c #9B664A",
"i. c #9C6A4E",
"p. c #8C6856",
"a. c #9B6E57",
"s. c #9C725C",
"d. c #A16741",
"f. c #A26A46",
"g. c #A26B4B",
"h. c #A26D52",
"j. c #A67455",
"k. c #A4755B",
"l. c #AB765B",
"z. c #AA785C",
"x. c #B17A5E",
"c. c #93677C",
"v. c #A67963",
"b. c #AC7C65",
"n. c #A17C6A",
"m. c #AC7E6A",
"M. c #B37C64",
"N. c #B67D69",
"B. c #AB7C78",
"V. c #B07F79",
"C. c #AD816B",
"Z. c #B28164",
"A. c #B4836D",
"S. c #BA8268",
"D. c #B6896B",
"F. c #BB8A6E",
"G. c #AD8075",
"H. c #B58571",
"J. c #BB8473",
"K. c #BD8C73",
"L. c #B3837C",
"P. c #B68D79",
"I. c #BE9074",
"U. c #BB957C",
"Y. c #C18B6D",
"T. c #C28D72",
"R. c #C59074",
"E. c #C4957D",
"W. c #2E229E",
"Q. c #392D9D",
"!. c #150EA3",
"~. c #1C14A8",
"^. c #1D1CAD",
"/. c #221EAC",
"(. c #2824A6",
"). c #2421AD",
"_. c #3329A5",
"`. c #342AA5",
"'. c #2622B0",
"]. c #7D6189",
"[. c #85658B",
"{. c #886891",
"}. c #AD7D81",
"|. c #A78989",
" X c #BB9987",
".X c #BEA39A",
"XX c #C69781",
"oX c #C79881",
"OX c #C9AC9D",
"+X c #CCAFA1",
"@X c #D3B8AA",
"#X c #B0AFD7",
"$X c #B2B0DC",
"%X c #E0D0C7",
"&X c #E6DBD5",
"*X c #DDD8E8",
"=X c #F6F2EF",
"-X c #E2E4F5",
";X c #F8F3F2",
":X c white",
/* pixels */
" . .}  . . . . . .} | ` ` _ E ( B B B B N N N N N N _ B _ _ _ M N _ _ _ _ _ ( _ _ ] ] ` ] ] [ | ] | | ........@.@.@.O.#.@.+.+. .",
" . . . . . . . .~ ~ ~ { ` E T v N N N _ _ _ _ _ _ _ _ _ _ ` ` N N ` ] ] ] ] ] ` ` _ _ _ ] ..@.@.....O.O.+.O.O.+.+.+.+.+. .+.%. .",
"{ { { { ~ ~ { { ! ! E E E v x x N N N N _ _ _ _ _ _ _ _ _ _ _ N N _ ` _ _ _ _ _ _ _ N N N ] ......@.@.#.#.@.#.@.O. . . . . . .{ ",
"+. .} } ~ ~ ~ E R R z 8 8 9 0 0 l z c c v ( _ N _ ( _ ( ( _ _ M N N N N N _ _ _ N m N _ _ ` ] ` | o.| | | ......@.@.O.+.+.O.%. .",
"{ { ` E E ! E T x q q z x x z z z z z x ( ) R v _ _ N N N N N 0 l z m m m m l z z N ( _ _ _ _ ( _ ) ( ( _ _ ` ` ` ` _ ` _ E ` ` ",
"E E E R R E R R R x x x x x x c c z z x ( ` ] ` ] [ _ ( ( N N z z v c N N N N N ( _ _ _ _ ` ` _ _ ` ` | | | | | | | | } { ` ` ! ",
"l l 8 8 8 9 l l m M m m m M m l l l l l l n l l l l l 0 0 0 0 9 0 0 l m m m m m m m M M M M m m M M m m m m m M m m m m m m m n ",
"] ] _ ` ] | | ..@.@.@.@.@.@...| | ] ] ` ` ` _ _ ) ) R v v v x R _ _ _ ` ] | | | o.@.@.@.@.o.o.o...[ [ [ ] ] [ [ ] [ _ _ ` [ ] ] ",
"] ] ] | | ] ..@.@.#.@.o...| | Q ! {  .....| | ` Q Q Q E E R v T _ _ _ N N _ _ _ _ _ _ [ ] ` ` ] [ [ _ _ N _ _ _ _ _ _ N _ _ _ ` ",
"] | | | | ] | @.#.#.@...| T E x x x E _ _ _ R R T T x v Q _ R v ( ) ( N N N N N N N N N _ N M m _ _ B N M M N _ _ N N N N _ N _ ",
"| ..| ..| ....#.@.#.Y u s V V s s s a s s V V V V V s a a a a a a a a a a a a a a a a a a a a a a a a a s N M M N N N N N N N ] ",
"| ......O.@.@.@.#.@.u . o o o o . . . . . + o o o o o . . . . .                     . . . . . X . . . . o M N N M N N N N N N ] ",
"M M M M N N m M N N s o * * = @ @ @ @ @ @ % % % % & @ + @ @ @ + + + + X O + + + + + @ @ @ @ @ @ @ @ @ @ @ 9 l l l 9 9 l 9 l 0 m ",
"R E ) ` ` R q x { ..V o * * * % @ @ @ @ @ ; % & % & @ @ @ @ @ o + + + . + + + + + + @ @ @ @ @ @ @ @ @ @ = x T T R T T E T T R R ",
"E Q _ ` ` _ q q { ` s o @ * * @ @ @ @ @ @ ; % : : & @ @ + @ + + . O . . . + + + + + @ @ @ @ @ @ @ @ @ @ @ q w w w x T T w x x T ",
"x x x x x ! x T E E s o @ @ @ @ @ @ @ @ @ @ @ @ @ @ @ ; ; ; ; * = = = & & = = : : : % @ @ @ @ @ @ @ @ @ @ q w T w q w x x x x z ",
"x z x T v ` ] | | | s . @ @ @ @ @ @ @ @ @ @ @ @ @ @ : : : : : > 5 5 5 5 5 5 5 5 5 5 : @ @ @ @ @ @ @ @ @ @ x x x x x x x x z x z ",
"E ) _ Q _ _ ` ` ` ` s . @ @ @ @ @ @ @ @ @ @ @ @ @ @ : : : : : > 5 5 5 5 5 5 , 5 5 5 : % @ @ @ @ @ @ @ @ = _ E ) ) ` { Q R T T R ",
"` ` _ _ ( _ _ _ _ _ a . @ @ @ @ @ @ @ @ @ @ @ @ @ @ : : : : : > 5 5 5 5 5 5 5 , , 5 : % @ @ @ @ @ @ @ @ = ] ] ] ] ] | o.| ] ] ` ",
"` ` ` ` ] ] | o.@.| s X @ @ @ @ + + + + + + + + + o % ; * * * = , 2 5 5 - - > > > , = + o + + @ @ @ @ @ * _ _ ( R N ( _ _ _ _ _ ",
" . .+. .%.%.-.-.%.%.V X @ @ @ : 7 6 6 6 6 t t t t r y y y y y i i i i i i i i i i i 7 5 5 5 6 > @ @ @ @ = Q E ! { { { { { }  . .",
"} {  .{  . .%.+. .} s . @ @ O G K.D.D.D.D.K.K.K.K.K.E.E.E.E.E.E.H.H.H.H.K.K.K.K.K.K.m.k.l.l.x.r.@ : : : > R R R E ~ { ~ ~ ! ! { ",
"{ }  .+.%.-.-.;.-.-.V . @ @ O G I.D.D.D.F.I.I.K.I.K.E.oXXXXXoXE.K.K.K.K.K.I.I.I.I.I.Z.z.z.z.x.r.= : : : > Q Q E E E ! ! ! ~ { { ",
"{  . . . .%.-.-.-.-.V . @ @ O G K.D.D.D.D.K.K.K.K.K.E.E.E.XXoXE.K.K.K.K.K.K.I.I.K.I.Z.z.z.z.M.0.: : : : > ` ` _ _ ` ! ! ! ~ ~ ~ ",
"~ { { }  . . . . .%.a . @ @ . G K.D.D.D.D.K.K.K.K.K.E.XXE.XXXXE.K.K.K.K.K.K.K.K.K.I.M.z.z.z.x.r.; : : : > _ _ _ _ _ Q ! ! ! ~ ~ ",
"N N N N N N N N N N a . @ @ O G K.D.D.D.D.K.K.K.K.K.E.XXXXXXXXE.K.K.K.K.K.K.K.K.K.I.M.l.l.l.M.r.* : : : : M M M M M m M M M N N ",
"o...O... .}  .} }  .n.p.p.p.p.s.H.A.D.D.A.Z.C.C.C.C.H.H.H.H.H.C.v.v.v.v.v.H.K.H.K.K.z.h.h.h.h.i.9.9.9.9.2.@.@.@.@.@.@...@.@.O.O.",
"| ` ` ` ` ` ` | | ..U.m.Z.Z.Z.A.A.A.A.A.A.m.b.b.b.b.m.C.C.C.C.v.s.s.s.s.s.H.H.J.K.K.k.u.i.i.i.i.h.h.h.h.g.| | ..@.@.....@...| | ",
"_ ` ` ` _ _ _ | | | P.b.m.m.m.C.A.A.A.A.A.m.b.b.b.b.C.C.C.C.C.m.s.s.s.s.k.H.K.K.K.J.k.u.i.i.i.i.i.i.i.i.u._ _ ` ` ` _ ` ` _ _ _ ",
"_ _ _ _ ` ] ] ] ] | P.b.b.b.b.Z.A.A.A.A.A.m.b.b.b.b.C.C.C.C.C.m.s.s.s.s.k.H.K.H.H.J.k.u.i.i.i.i.i.i.i.i.u.N _ ` ` ] ] ] _ ( ( _ ",
"_ _ _ _ _ ` _ ` ` { P.b.b.b.b.m.Z.M.M.M.M.Z.Z.Z.Z.Z.C.C.C.C.C.m.s.a.a.a.s.F.T.T.T.R.j.w.y.y.y.y.u.u.u.u.u.( _ _ _ _ _ _ _ _ _ ( ",
"l l l l l l n l z z P.m.Z.C.m. X+XOXOXOX.X[.].].].].B.Z.N.m.A.m.b.v.v.v.v.{.{.{.{.{.|. X X X XP.h.h.h.h.i.9 9 8 8 9 9 9 9 k l l ",
"$.$.$.$.$.$.5.$.=.$.U.Z.A.A.m.@X:X:X:X:X-X(.^.^.^.^.c.S.N.N.M.A.J.J.K.K.L.W.^././.!.$X:X:X:X:X&Xb.m.m.m.b.$.$.5.5.5.5.5.5.5.$.5.",
"o.$.#.$.=.=.=.=.=.=.U.Z.A.A.m.@X:X:X:X:X-X(./.).'./.c.S.N.N.M.N.J.J.J.K.V._.).).).~.$X:X:X:X:X&Xv.m.b.b.z...#.$.$.$.$.$.$.$.$.#.",
"o.#.$.#.$.$.#.+.+.=.U.Z.A.A.m.@X:X:X:X:X-X(./.).).).c.N.N.N.N.N.J.J.J.K.V._.).).).~.$X:X:X:X:X&Xv.m.b.b.z.T T ] | o.o.o.o.o...| ",
"@.o.@.#.$.#.#.$.=.$.U.Z.A.H.m.@X:X:X:X:X-X(./././.^.c.S.N.N.N.S.T.T.J.T.L._.^././.~.$X:X:X:X:X&Xb.m.m.m.b.| | ..| | o...| | ] ] ",
"#.#.$.$.$.$.$.$.=.=.I.M.A.Z.b.+X;X;X;X;X*X`._.`._._.c.M.b.M.M.M.A.A.H.A.m.Q.`.`.`.W.#X;X=X=X;X%Xk.b.v.z.k.@.] ] ] ] ..[ o.#.#.#.",
"$.$.$.$.$.$.$.$.5.$.b.y.u.u.y.l.H.H.H.A.H.B.}.}.}.}.Y Z H H H H H H H H K G.L.L.L.L.b.j.j.j.l.i.,.<.,.,.,.$.#.@.#.#.#.#.#.#.#.#.",
"9 9 9 0 l l l l l z k.q.y.y.y.h.M.M.M.x.M.J.J.J.J.J.P f g g g g g j j g H S.Y.Y.Y.Y.j.d.d.d.f.y.I U U U I l l l l l 9 9 9 9 9 9 ",
") _ _ _ _ _ ` ` { { z.y.y.y.y.h.M.M.M.M.M.J.J.H.H.J.P f Z j j j Z Z Z g H A.K.F.F.T.l.f.f.f.g.y.I ,.,.,.,.` ` _ ( _ ` ` _ ` ` _ ",
"z c x z x N ) _ _ ` z.y.y.y.y.h.M.M.M.M.M.J.J.H.H.J.P f Z j j j j j j g H S.K.F.F.T.l.f.f.f.g.y.I U U ,.,.N N N z z c N N N c c ",
"z z z z 0 z x v T T z.q.u.u.y.h.M.M.M.M.N.J.J.J.J.K.P f g g g g g g g g H F.T.T.T.R.x.f.f.f.g.y.I U U U U N x c m 0 z c l l 9 0 ",
"m c c c z 0 0 z z x k.w.t.t.t.u.g.g.g.g.u.Z Z Z Z Z P P P P P P P P P P P A A A D Z 2.t.6.6.t.6.U U <.<.,.l x N c c m c c c c c ",
"( ( ( N v x c x x v s.0.0.0.w.w.4.4.4.y.1.# # # # # J 8.>.7.7.7.7.7.7.7.:.2 $ $ # # D 6.3.3.4.3.U <.<.<.,.c c x c c c N N ( ( N ",
"n n n n n n n n n n s.3.w.0.w.w.6.t.6.y.1.2 2 2 2 2 J 7.>.>.>.>.>.>.>.7.:.4 2 3 3 2 D t.w.w.w.3.<.<.<.<.,.l 9 n l 0 9 n n k l n ",
"%...#.=.=.=.=.=.=.;.k.3.w.w.w.w.6.t.t.y.1.2 2 2 2 2 J >.>.>.>.>.>.>.>.7.:.4 2 2 2 2 D t.w.w.w.3.<.<.<.<.<.#.$.#.$.$.=.=.=.=.=.#.",
"O.` | @.#.#.=.=.#.#.k.3.r.t.w.t.y.y.t.y.3.2 2 2 2 1 J 8.7.7.7.7.7.7.7.8.:.4 2 2 2 1 D t.w.w.w.3.<.<.<.<.<.@.@.@.@.@.........{ | ",
"..{ ` | | }  . . . .a.,.2.2.2.2.1.1.1.2.,.2 2 2 2 1 d J S S S S J J J J h 4 2 3 2 1 S 3.2.3.3.1.U U U U ,.| | ` ` | ] ..| ` ` | ",
"| | | _ _ { +.=.+.@.e.d Z Z Z Z C Z Z Z d 2 2 2 2 2 1 < < < # < 1 2 2 2 2 2 2 2 2 1 Z 2.<.<.<.<.L L L L L ` ) _ ` | | | ` ] _ { ",
"_ _ ] | | | ....| ..e.C Z Z Z S Z Z Z Z f 2 2 2 2 2 1 1 1 1 1 1 2 2 2 2 2 2 2 2 2 1 Z 2.<.<.<.<.L L L L I | | | ] ` ` ` ` _ ` _ ",
"_ _ _ _ _ _ ` ` ` ] e.C Z Z Z S Z Z Z Z f 2 2 2 2 2 1 1 1 1 1 1 2 2 2 2 2 2 2 2 2 1 Z 2.<.<.<.<.L L L L I _ _ ' ] _ _ _ _ _ _ _ ",
"R R v v v v v x c v e.C Z Z Z Z Z Z Z Z f 2 2 2 2 2 1 1 1 1 1 1 2 2 2 2 2 2 2 2 2 1 Z 2.<.<.<.<.L L L L L ` | ] ] ] _ ` _ ) E R ",
"~ ! ! ! ! ! ` ` ` ` e.C S S S S Z S Z S C 3 3 3 3 3 3 3 3 3 3 2 3 3 3 3 3 4 4 4 3 2 S 1.<.<.<.<.L I I I F %.&.%.%.%. . .} } } ~ ",
"{ { ~ ~ ! ` ! _ E Q _ _ _ _ _ _ _ ` _ _ ) v _ ` ` ] ] ] ` ` ` N N _ { { { ^  . ./ X.%.&.%.X.X.X. ./ /  . .&.-.-.-.-.%.%. . .} { ",
"~ ~ ~ ! E ! ! ! ! E E E E E _ _ Q Q ` ` _ _ ` _ ` ` ` ` ` ] ` N v E Q ~ ~ ^ ~ ^  .X. . .X.X.%.X.^ W ^ }  .X.%.*.=.-.%.%.+. .{ { ",
"} ~ ~ ~ ~ } ~ ! R R R Q E E E Q Q ` ` _ _ _ _ _ ` ` ` ` ] ` _ v v ) _ ~ ^ / /  ./ X.%.%.%.%.X. .X./ X.X. . .}  .%.%.+. .~  . . .",
" .+. . .} } { | { | | | | | | ` | | | ` ` ` ` ] ] ` ` ` ` ` ` v N _ ` }  .%.&.&.*.&.&.*.-.-.;.-.-.-.&.%.%.-.-.-.-.-.-.%.%.%.+.+.",
"m M m m m m n m m m n n n m M m m n m M M M M m M m m m z l l 0 9 0 0 l z z c c v c c v c N N N N N N N B N B B N z l 0 9 9 l m ",
"` ] [ ] _ _ [ ] [ [ [ [ [ [ ..[ o.o.@.@.#.@.@.o.| | | ] ` _ _ _ ( x x v v E ) ) _ _ _ ` ` ` ] ] | ....@.@.@.@.@.| | ] ` _ ( ] ` ",
"] ` _ _ N B B _ _ _ _ B _ _ ] [ [ [ ] ] ] ` ` _ ` ` _ _ _ _ _ _ R x T R E E E E _ { { | | ..| ` ` } ..@.@.#.#.@.@.| ] ] | ` ] ] ",
"` _ _ B N N _ _ _ N N N B _ _ _ N N N _ N N N N N N N N N ) _ ( v T Q Q v x T T E _ ` ` ` ` x x T T T ` | @.#.#.@.| ] | ..| | ] ",
"] N N N N N N M M M M m M N N M N N N N N N N N M M M N N c c N N ) _ _ Q ` ` { ` ` ` ` _ E T R R { { | O.#.#.#.#.@.| | ..| | ..",
"] N N N N N M N N N M m M N N N N N N N N N N N N N M N N M m N ( _ _ | | | { { | | | | } ~ ~ }  .#.O. ...$.O.@.@.@.@.........| ",
"m k b e b e e b b b b 9 b 9 9 9 k b e k 9 9 9 9 k 9 9 9 9 9 9 9 9 0 0 z z c z l z z M c z c z N c c M c M M N N N M N M M M m m "
};
