/* XPM */
static char *_a64e274939e4dd1ddec64fc8f03c3c3trsvzltPvQ9YW0yT[] = {
/* columns rows colors chars-per-pixel */
"64 64 123 2 ",
"   c #724640",
".  c #754B45",
"X  c #7D4D44",
"o  c #764E48",
"O  c #7B4F48",
"+  c #75514D",
"@  c #7D534C",
"#  c #7D5652",
"$  c #7E5955",
"%  c #8F483B",
"&  c #9E553F",
"*  c #A1553F",
"=  c #A2583F",
"-  c #844E44",
";  c #8C4E43",
":  c #934E42",
">  c #9A4D40",
",  c #845146",
"<  c #8D5246",
"1  c #84544C",
"2  c #8B554B",
"3  c #8D594E",
"4  c #955445",
"5  c #9C5545",
"6  c #955946",
"7  c #9D5A46",
"8  c #94564A",
"9  c #9B5649",
"0  c #955A4D",
"q  c #9C5B4C",
"w  c #835651",
"e  c #895751",
"r  c #845A54",
"t  c #8C5C54",
"y  c #845D59",
"u  c #8B5F59",
"i  c #945C53",
"p  c #9B5D52",
"a  c #905F58",
"s  c #A25644",
"d  c #A35C45",
"f  c #A85D44",
"g  c #A15748",
"h  c #A25C4B",
"j  c #A85F49",
"k  c #A15E51",
"l  c #9E604C",
"z  c #8F6157",
"x  c #86625D",
"c  c #8D625C",
"v  c #946156",
"b  c #9C6255",
"n  c #9F6255",
"m  c #9C6356",
"M  c #926258",
"N  c #92635B",
"B  c #966358",
"V  c #91635D",
"C  c #93645C",
"Z  c #91655F",
"A  c #95645D",
"S  c #9B655B",
"D  c #99655D",
"F  c #9A665C",
"G  c #9C675D",
"H  c #96685F",
"J  c #9A685F",
"K  c #9D6B5C",
"L  c #9D6B5E",
"P  c #9F6D5F",
"I  c #A26047",
"U  c #A56145",
"Y  c #AA6245",
"T  c #A26048",
"R  c #A36349",
"E  c #A46248",
"W  c #A56348",
"Q  c #A1604C",
"!  c #A4614C",
"~  c #AA634B",
"^  c #AF684E",
"/  c #B16549",
"(  c #A26251",
")  c #A36253",
"_  c #A06453",
"`  c #A16553",
"'  c #AA6553",
"]  c #AD6A55",
"[  c #A26659",
"{  c #A8675B",
"}  c #A46A5C",
"|  c #A06D5F",
" . c #AA6A5B",
".. c #B06A51",
"X. c #B47059",
"o. c #8D6661",
"O. c #8F6661",
"+. c #8E6863",
"@. c #936760",
"#. c #926661",
"$. c #966660",
"%. c #996760",
"&. c #976962",
"*. c #956A63",
"=. c #966C66",
"-. c #986961",
";. c #9C6961",
":. c #9E6B61",
">. c #9E6A63",
",. c #9C6C63",
"<. c #9A6A64",
"1. c #9A6C64",
"2. c #956E69",
"3. c #996E68",
"4. c #96726E",
"5. c #9A716B",
"6. c #9D7671",
"7. c #9D7975",
"8. c #A36C62",
"9. c #A16E65",
"0. c #A86C61",
"q. c #AC7165",
"w. c #A17268",
/* pixels */
"N 0 p p p p p i p p p m p A m m p q q p i i i i m N 0 p 0 9 q 0 q 0 9 0 0 q N E T E E E T T T l T q 9 c m q 9 q q q p 0 i p 0 ( ",
"V 0 p p p p 0 p i i 0 p m V q 0 0 q q 0 i i i i p N 9 0 9 4 9 q q 9 8 8 0 q B T T 7 5 7 7 d l q q q 9 V m q 8 q q m m p 0 p q p ",
"Z p 0 p 0 p p p p 0 0 p p #.p 0 p m p p 0 i 0 0 i V q ( k q q p q q q q 0 p N Q ~ T T 7 7 7 q q Q q 8 c m l q 6 q q q 0 0 0 0 9 ",
"O.A J -.-.-.-.$.A A N V &.O.&.&.&.-.1.1.&.-.$.$.<.&.9.9.:.:.:.D J :.D D D -.u v L L P | L J J J :.-.Z y N N A -.:.A A :.J J J :.",
"l _ _ _ m m B c v v v p i p i m i i B G y i i p v p p p 0 p p t r i 0 q m p q 0 q 0 p m i a p p 0 0 0 9 9 0 0 0 p v t p q q ( ( ",
"7 d d d 7 7 m t p p 0 0 p p p p p i p [ e [ p [ p 8 9 q h q 9 t a p q q q q l q q q q ( 0 i q 0 9 9 9 q 9 9 q q p [ t 7 q h d d ",
"I I 7 7 7 7 q N m p 0 9 0 0 0 q i 8 p m t q q q 0 8 i 0 0 0 9 t t p q q 9 q q q q q q 9 0 0 m p 9 9 9 q q 9 9 9 p m a q q l d d ",
"E E I d T I q N l 0 9 0 9 9 9 9 8 8 p p t 0 6 0 0 8 8 8 0 8 q i i m q 9 9 q Q q l l q q q 0 m m q q q q q 4 0 p 0 m t q l l T d ",
"! ! ! ! m Q q t m m p m p m p m p p m S t p m m S i i p p i i B N B m m m m m [ m m m m i a m m m m m m m m m i p m t m m m l Q ",
"c J D J A 1.,.A :.A A N B x Z &.&.A a a B D L S -.x :.-.&.&.$.V z u Z A H c y a a B i A J N t e u t N y t t 2 3 v m v L D J J :.",
"B q q Q q h h Q q 7 7 7 d N 0 p p 0 q p p p Q ! ( t h q p 0 q 0 p m q p 0 p t 9 9 h h q q q 9 5 q q 6 c h d d Y Y d d Y d 7 ( q ",
"N h 7 7 7 q q l d I E 7 d N 0 p q 7 9 9 p p 6 7 l t h 7 9 q q q 9 q q 6 q m t 9 q q h h q h h q h h 9 Z l d 5 d d U d E E d q m ",
"a q h q T q l I d T E 7 h B 0 q q 7 T 7 0 0 9 q q 3 h 7 d 7 q q q 9 T 7 l m t 9 9 9 h s q s s 5 h h 9 c Q T 7 d d E d U E 7 q ( ",
"t q Q T T T Q ! T E ! j E A 0 ( Q q ( q l p ( m [ 3 E T ~ ~ ~ h h ' ~ ~ ! { 2 q 4 9 9 h h h 5 5 s 5 5 t T Q T I E E E Y E T h ( ",
"c &.&.1.1.1.&.Z &.c A u t r u t c A Z c y V c c N u c Z c u A V u u a B t N 1 u A A a t w t i N B t t t v v B v N N e t v S A D ",
"d % : h Q q m i i ; 8 8 9 p 0 : 9 q p p t 5 s d E T E T d 7 ^ m 8 9 q 9 h ! h E q p q q a q ~ j ~ / f j ~ ~ Y ~ ~ m < E ~ ~ 5 s ",
"~ s 9 ' E 7 m S p q q p 0 q 9 q 9 q p [ t g s d d 5 d d d 7 7 m 6 9 q h s q 7 d q q q p i Q d 5 d s d 7 d 5 d 7 d m 6 4 5 d d d ",
"E E E d 6 6 m i p p p q 0 9 9 q 9 9 0 k t h s h d 4 7 d d 7 7 p 0 q q q h q d s 4 5 9 q i q s d d d d s d d d 5 d _ 6 4 5 d d E ",
"E d 5 7 8 q S N p 0 0 q 9 p q k 9 0 q h u q q ! h 5 7 ~ E E h v 9 9 q q q Q ! j 4 9 9 h i 9 d j E E E l E E E s d m q d d d Y E ",
"Z Z &.Z c #.Z c t e e e e t c Z V #.&.Z x &.=.1.c u t N c c u y c c c c Z u r e e e e e w y r e w u c c #.=.&.&.O.2.&.1.1.1.w.-.",
"y Q T 7 E E Y 7 E ~ E 5 ~ t 8 8 8 0 0 q q q h q 3 6 ~ d E E ~ h q m ( ( p i 3 h h k [ 0 0 ( ( h 8 q 0 y 0 0 q 0 m m p q q 0 0 9 ",
"t h j d s E d E E E d d E t 4 p p p p p q q q q p 6 d d 7 7 q 9 0 q 9 q q p 2 ( q 0 0 0 q p ( q ( q p x p q ( ( h q p 0 q q 9 q ",
"t Q d h 7 7 5 5 5 d 7 5 q t 4 0 0 9 9 q q 9 9 0 p 0 q 7 7 q q 9 0 9 6 q 6 p 3 0 9 0 p 6 8 9 q 9 9 9 q O.0 6 6 6 6 8 0 q 0 9 6 p ",
"t h q 7 7 7 7 d E ~ E d d t 4 9 9 4 9 q q q 9 9 m p h q h Q h q p q q [ q p 2 q q q p 0 p p p 9 q 9 p x p q q 0 9 q q q p p q k ",
"c :.J S S m i t m 0 m m p r e u Z Z &.#.$.A A D x N D B S D B t N c c N N u r D A A Z %.c V Z A A A Z y A B N A A $.-.J D D B -.",
"7 q Q q m p a 3 9 ; 9 4 8 9 9 i m p p a t p p m q 4 8 8 8 i 3 @ 0 8 6 7 4 6 6 9 q 8 8 0 u 0 8 < 3 2 < 6 q q q l 0 c q Q h E q T ",
"d d 7 7 h ' m 0 h 5 q 4 h d h q q 9 q S i h h h h 5 4 h q 9 [ r h s s s s s d d h 9 9 9 u p p 9 q 4 9 E E E d U E t 7 E Q ~ ~ d ",
"d d 7 5 q h m 0 h 4 h 5 h 7 d h q 5 q S p k h h q 4 h 4 5 : q r h d s s d d d j q 8 9 9 N p 0 0 p 0 4 E E d d d h u q 7 6 7 7 I ",
"~ ~ ~ 5 4 q N 0 q 9 h q h d d E s 5 4 p p h h h q 9 q q h h h r j s d s s j d h 5 9 q 9 t q m q q q q E ..h E E E u 4 5 q 4 7 E ",
"] X.] p p p c p m m m m [ m m _ p p p v N A m m B a v i p p p 1 6 6 8 8 0 0 p p p p i i r i 0 0 0 8 0 t 0 0 0 m m c m m p p q m ",
"c c z t z t e 1 r t t u t w o 3 3 0 p p m 3 p B x i p 8 6 6 8 4 4 4 < 4 , t $ 3 0 p 0 6 6 6 4 6 6 < 2 o < < 6 q 0 6 p L m m v i ",
"t h ^ ~ h 5 k [ k q q q k S 2 ( ( ! E h p 0 m m c 9 q 9 h h s s d d h h 9 m w E j h s ~ Y Y f j f s ' e h j d d d d s d d h k q ",
"N ( ~ E q q q h q 9 9 4 q i 8 p q 7 q 9 p 0 p p t 9 j h 5 7 s s d s h q q m w d d q 5 s d = * 5 d 5 ( e s d s d s s h 5 5 7 q q ",
"N q h s 7 5 5 q q q q 4 q i 8 p 9 4 6 9 p p m m t 4 j s s s 5 d d d h 5 h [ @ d h 5 5 s f * & 5 & s ( e h d d d d h h h q q q k ",
"A 4 h 7 7 9 9 q h Q q 9 h v N m [ _ m p i 0 i i 2 s d d d f h h h ~ h h ' D 1 h ' h q ~ ~ Y ~ ~ ~ ~ ' t j j j ~ h h h h ! ( h q ",
"#.Z &.u Z #.c r c Z c r y $ y y # y x O.x y y e 1 1 2 1 1 t u y A N c z N 1 1 c c u y u @ 1 e 3 1 t r 1 1.5.=.*.&.x Z Z A Z &.5.",
"4 4 j ~ / ~ m e p 0 p p k [ m p p i 0 8 #.m ( k h s s s s h p 1 h q 4 9 h h 9 h j s 5 h @ d f d h q h h h q 9 7 Q c q h f d ~ 7 ",
"7 h h d d ~ m w k q p k q [ m 9 q k 9 9 c p m q s s s s d j 8 1 h h 9 5 h h 5 5 h q q h @ d d ! 9 q 9 q q q 9 5 d N 7 ( d d d 7 ",
"q 5 h 5 * s m t p 9 9 4 4 0 p 9 9 9 9 p u q q 4 s s s s d h 0 2 h h 9 8 9 q 5 5 s s h h w d d 7 q 9 q q 7 7 d d ^ c 5 ! E 5 7 d ",
"h 9 7 5 d ~ m t 9 9 q 4 4 m p 9 9 9 9 p r 0 6 8 h Q Q j d h p 3 ( h 9 q 9 h g 9 q g s ~ 1 ~ j 5 q q j ! ! ( j ~ ] u Q ~ ~ I Y ^ ",
"t a m m } } t r a B u u t # y &.&.$.$.#.c #.#.c O.w @ O @ e r r -.A A B a N a i i 0 0 p . t i t t 3 N t c N S v S @ N 8.L | | L ",
"y i 0 8 2 8 < 6 Q 9 p p m 1 8 9 j d j h h j j h u 1 , X , < 7 6 6 7 6 6 0 t e p 0 5 s 4 4 4 4 8 6 4 0 r 0 8 8 - 2 ; < < 8 8 8 2 ",
"r ( h h q 9 h d d d ! ' ~ i 9 h h q 9 5 q q 9 9 e q E E Y Y Y E U d ' ' ! v t p g s d d 6 4 5 h j ! h t 5 g h q ( h 9 9 g h h q ",
"r k q 9 9 4 q d d d h 6 d 3 4 q p 9 6 4 4 9 q h t 6 Y U Y Y d U U d d d d p t ( 7 d d d 7 d d 5 5 h h t 5 h h 4 q 9 9 5 5 g 5 p ",
"u k q q q k h d E j h 4 h a 8 ( k p p 9 k k ( ~ t 6 Y d d d E Y d d s E ~ 0 e h h d d s d d d d 5 h ' t 5 9 h 4 9 h g 5 5 5 > 0 ",
"y i p 0 0 0 p p m m m m | #.L 8.8.8.i p m m m i u N B m L m m m m m ' ' { z 3 q h ( ( ~ ~ ' ] ]  . .q.c m p p p m [ [ m p p q p ",
"3 - , < , 2 2 @ 1 1 2 0 p 0 0 i 0 i i 2 r , 1 X X X .   @ 1 @ + 2 1 t 2 3 - 1 t e 1 X w y @ 1 u t c c c A A A B t t y e 3 2 a a ",
"m q 9 9 q h { 1 5 h 4 9 q q : : 4 h h 5 t 9 h d E h 5 h h 7 [ $ h h 5 h g 5 h g 5 5 5 g V - ; 4 8 8 - ; 5 9 4 g 5 4 t h h 5 h h ",
"p 9 9 5 9 h  .1 q q , 8 0 8 4 > h h h : a ( d d j g g h h q ( $ h j g g s g g 5 5 5 g g c - : ; < < - 2 < 8 4 g 5 4 B h k > h 7 ",
"( q 9 4 5 h  .1 q 0 X 3 0 0 4 > 5 h h 5 i ' d d s g g h 5 h ( # h j s s s s g g g 5 g h x 3 8 : 4 8 ; ; ; < 4 5 5 4 a h 9 5 h h ",
"[ ( k h k ( 8.2 9 2 1 2 q 9 8 4 4 h h 5 i ' ' ] j h h h h (  .r ( h j j d d g h h h k k y m ' ( (  .( ( { 0.0.} { } a ( k h h ( ",
"c x x c x #.x +.4.4.4.4.4.3.2.+.+.+.O.O.c &.-.<.1.$.H Z Z -.3.y x &.O.O.O.+.+.x x y y x y #.=.&.&.&.&.c &.&.#.&.5.#.c Z V &.&.&.",
"O - 2 - @ 2 ; 1 1 8 i 8 p O.0 0 6 8 8 8 4 ; ; ; < e 4 4 5 4 4 q 9 4 8 0 q 7 r 9 9 q 0 < ; 4 4 8 4 4 4 y 8 6 4 9 4 4 4 4 : : : : ",
"A 8 8 4 p p 0 p p 9 [ h p O.q h h h h h p q 0 p 0 N j d d d d h q 0 9 q d h t 9 q q 9 9 9 9 9 9 0 q 5 u q h h h q 7 h 5 s s h q ",
"&.0 0 9 p p p p p 9 p q p x q h h h q q p p p p q N j E E E d s q p p q h T t 9 0 0 q q q q q q p q q u q h h s h d h h 7 j ! ( ",
"&.8 p 0 p p i i p 9 0 9 p t p h Q h q q p p p p p a h d d d 7 h q q q q h q e p p p p p p 9 0 0 q 0 p c q q ! h s h h q 7 h h q ",
"r i a i V A B N a i 8 8 a r i m m m v p m p i p p V m ( h q q m p p q m m _ c A D D -.:.D D :.:.9.:.:.#.S } m m m m m m m m m m ",
"1 1 1 r t c x e 3 3 3 t 2 , 2 2 1 2 1 @ @ 2 a i t t i a B D -.#.N A A t Z N Z -.-.-.-.1.4.=.1.1.&.#.#.#.#.O.c #.1.4.1.-.-.J A t ",
"( h q q q q u i h E Q ' h Q h h q Q h h e 8 h h q j j j s h h D 6 q h 9 q h h h h q 9 q %.8 q p q 0 0 0 9 q q q 8 A q h h T E ( ",
"d s h q q 9 i N q h q q q q q q q q q q V q h q 7 d d ~ * h h -.9 q h q q h h q q q 9 q &.9 q q 9 0 h h Q q h h q N q j 7 7 6 5 ",
"5 q 7 9 4 9 S v q q q q q q q q q Q l m A q q 9 q d d d * g g A 9 9 q q q q h q q q q q A 9 h q 9 9 h q q q 9 h q i q ( d 7 7 7 ",
"s m p q 9 q v p q q q q q q q m q q l m Z q q 9 9 h d E s g s B 6 9 q h h j h q 4 7 q q N q q q 0 0 q q q q q q 9 N S 8.Q h h h ",
"&.#.#.&.&.3.3.2.4.5.4.5.3.O.c #.#.=.=.2.2.6.7.6.6.4.5.#.A 1.5.&.&.=.&.&.1.&.&.A A A &.&.#.=.3.1.=.5.1.&.3.&.&.&.&.#.+.c 2.=.=.3.",
"N p m p p m m m m m m m m V m m m m m m i i a i S $.0 m p p ( p m ( ( m p p u E ~ E E ~ ~ ! q q ! ( ( c m ( ' ( m [ p p p q q m "
};
